<?xml version="1.0" standalone="no"?>
<!DOCTYPE svg PUBLIC "-//W3C//DTD SVG 1.1//EN" "http://www.w3.org/Graphics/SVG/1.1/DTD/svg11.dtd" >
<svg xmlns="http://www.w3.org/2000/svg">
<metadata>Generated by IcoMoon</metadata>
<defs>
<font id="icomoon" horiz-adv-x="1024">
<font-face units-per-em="1024" ascent="960" descent="-64" />
<missing-glyph horiz-adv-x="1024" />
<glyph unicode="&#x20;" horiz-adv-x="512" d="" />
<glyph unicode="&#xe900;" glyph-name="attes" horiz-adv-x="1320" d="M1051.307 465.067c-145.636 0-268.516-117.191-268.516-263.964 0-144.498 118.329-265.102 268.516-265.102 145.636 0 268.516 117.191 268.516 263.964s-119.467 265.102-268.516 265.102zM1216.284 290.987l-164.978-211.627c-3.413-7.964-14.791-11.378-22.756-11.378s-19.342 3.413-22.756 7.964l-122.88 102.4c-7.964 7.964-11.378 14.791-11.378 22.756s3.413 14.791 7.964 22.756c7.964 7.964 14.791 11.378 22.756 11.378s14.791-3.413 22.756-7.964l95.573-79.644 142.222 185.458c11.378 14.791 30.72 14.791 45.511 7.964 15.929-15.929 19.342-38.684 7.964-50.062zM1051.307 544.711c95.573 0 179.769-37.547 241.209-97.849v407.324c0 56.889-50.062 105.813-106.951 105.813h-1078.613c-56.889 0-106.951-48.924-106.951-105.813v-729.316c0-56.889 50.062-105.813 106.951-105.813h648.533c-34.133 52.338-53.476 113.778-53.476 180.907 0 193.422 157.013 344.747 349.298 344.747v0zM771.413 793.884h375.467c11.378 0 22.756-11.378 22.756-22.756s-11.378-22.756-22.756-22.756h-375.467c-11.378 0-22.756 11.378-22.756 22.756s11.378 22.756 22.756 22.756v0zM771.413 673.28h375.467c11.378 0 22.756-11.378 22.756-22.756s-11.378-22.756-22.756-22.756h-375.467c-11.378 0-22.756 11.378-22.756 22.756s11.378 22.756 22.756 22.756v0zM663.324 234.098c-3.413-19.342-7.964-30.72-11.378-34.133-7.964-3.413-11.378-3.413-19.342-7.964-11.378-3.413-22.756-3.413-38.684-7.964-14.791-3.413-30.72-3.413-50.062-7.964-34.133-3.413-72.818-7.964-106.951-7.964h-100.124c-38.684 3.413-72.818 3.413-106.951 7.964-19.342 3.413-34.133 3.413-50.062 7.964-14.791 3.413-27.307 3.413-38.684 7.964-7.964 0-14.791 3.413-19.342 7.964-3.413 3.413-7.964 14.791-11.378 34.133s0 42.098 3.413 71.68c0 14.791 7.964 30.72 19.342 37.547 11.378 7.964 22.756 14.791 38.684 22.756 14.791 3.413 30.72 11.378 45.511 14.791s30.72 11.378 42.098 19.342c7.964 3.413 14.791 11.378 22.756 14.791 3.413 3.413 7.964 11.378 11.378 14.791s3.413 11.378 3.413 14.791v19.342c0 11.378-3.413 19.342-11.378 26.169l-30.72 30.72c-3.413 7.964-3.413 11.378-7.964 19.342-3.413 7.964-3.413 14.791-7.964 22.756-3.413 0-7.964 3.413-7.964 3.413-7.964 7.964-14.791 14.791-14.791 26.169-3.413 7.964-3.413 14.791-3.413 22.756 0 3.413 0 11.378 3.413 14.791s3.413 11.378 7.964 14.791c0 34.133 3.413 68.267 11.378 97.849 3.413 14.791 11.378 30.72 22.756 45.511 7.964 11.378 19.342 22.756 30.72 30.72 19.342 14.791 42.098 22.756 64.853 26.169 11.378 0 22.756 3.413 30.72 3.413h7.964c11.378 0 19.342 0 30.72-3.413 22.756-3.413 45.511-14.791 64.853-26.169 11.378-7.964 19.342-19.342 30.72-30.72 11.378-14.791 14.791-30.72 22.756-45.511 7.964-30.72 14.791-63.716 11.378-97.849 3.413-3.413 7.964-7.964 7.964-14.791 3.413-3.413 3.413-11.378 3.413-14.791 0-7.964 0-14.791-3.413-22.756-3.413-11.378-7.964-19.342-14.791-26.169-7.964-3.413-11.378-3.413-14.791-3.413-3.413-7.964-3.413-14.791-7.964-22.756-3.413-7.964-3.413-11.378-7.964-19.342-3.413-3.413-7.964-11.378-11.378-11.378-7.964-7.964-14.791-11.378-19.342-19.342-7.964-7.964-11.378-14.791-11.378-26.169v-19.342c0-7.964 0-11.378 3.413-14.791 3.413-7.964 7.964-11.378 11.378-14.791 7.964-7.964 14.791-11.378 22.756-14.791 11.378-7.964 27.307-14.791 42.098-19.342 14.791-3.413 30.72-7.964 45.511-14.791 14.791-3.413 27.307-11.378 38.684-22.756s19.342-22.756 19.342-37.547c6.827-29.582 11.378-52.338 6.827-71.68v0z" />
<glyph unicode="&#xe901;" glyph-name="approved" d="M726.891 439.919l20.559 13.867c0.046-1.923 0.070-3.852 0.070-5.787 0-130.074-105.446-235.52-235.52-235.52-33.27 0-64.929 6.898-93.624 19.343l20.56 13.868c22.81-8.239 47.413-12.731 73.064-12.731 116.058 0 210.642 91.94 214.891 206.959zM582.401 651.251c-22.058 7.639-45.745 11.789-70.401 11.789-115.107 0-209.091-90.44-214.768-204.138l-20.732-13.984c-0.013 1.026-0.020 2.053-0.020 3.082 0 130.074 105.446 235.52 235.52 235.52 32.312 0 63.104-6.507 91.138-18.282l-20.736-13.987zM512-64c-282.77 0-512 229.23-512 512s229.23 512 512 512c282.77 0 512-229.23 512-512s-229.23-512-512-512zM512-23.040c260.148 0 471.040 210.892 471.040 471.040s-210.892 471.040-471.040 471.040c-260.148 0-471.040-210.892-471.040-471.040s210.892-471.040 471.040-471.040zM512 7.68c-243.182 0-440.32 197.138-440.32 440.32s197.138 440.32 440.32 440.32c243.182 0 440.32-197.138 440.32-440.32s-197.138-440.32-440.32-440.32zM512 28.16c231.871 0 419.84 187.969 419.84 419.84s-187.969 419.84-419.84 419.84c-231.871 0-419.84-187.969-419.84-419.84s187.969-419.84 419.84-419.84zM603.354 745.775l-38.248-13.286 22.144 33.898-24.455 32.27 39.081-10.585 23.134 33.23 2.009-40.44 38.752-11.733-37.84-14.408 0.816-40.481-25.396 31.535zM466.495 759.188l-30.486-26.646 7.834 39.725-34.763 20.76 40.201 4.825 9.001 39.476 17.012-36.742 40.326 3.638-29.687-27.533 15.922-37.228-35.36 19.726zM343.060 711.384l-15.719-37.314-10.373 39.138-40.345 3.42 34.017 21.96-9.215 39.427 31.397-25.566 34.65 20.948-14.613-37.761 30.63-26.481-40.428 2.229zM245.966 611.274l2.934-40.383-27.011 30.163-37.5-15.269 20.34 35.010-26.11 30.946 39.582-8.526 21.363 34.395 4.123-40.279 39.313-9.689-37.034-16.368zM201.565 482.144l18.48-36.027-36.65 17.211-28.553-28.708 5.043 40.174-36.126 18.284 39.767 7.618 6.226 40.008 19.534-35.466 39.974 6.442-27.694-29.537zM421.698 147.292l38.248 13.286-22.144-33.898 24.455-32.27-39.081 10.585-23.134-33.23-2.009 40.44-38.752 11.733 37.84 14.408-0.816 40.481 25.396-31.535zM558.558 133.88l30.486 26.646-7.834-39.725 34.763-20.76-40.201-4.825-9.001-39.476-17.012 36.742-40.326-3.638 29.687 27.533-15.922 37.228 35.36-19.726zM681.992 181.683l15.719 37.314 10.373-39.138 40.345-3.42-34.017-21.96 9.215-39.427-31.397 25.566-34.65-20.948 14.613 37.761-30.63 26.481 40.428-2.229zM779.086 281.793l-2.934 40.383 27.011-30.163 37.5 15.269-20.34-35.010 26.11-30.946-39.582 8.526-21.363-34.395-4.123 40.279-39.313 9.689 37.034 16.368zM823.488 410.924l-18.48 36.027 36.65-17.211 28.553 28.708-5.043-40.174 36.126-18.284-39.767-7.618-6.226-40.008-19.534 35.466-39.974-6.442 27.694 29.537z" />
<glyph unicode="&#xe902;" glyph-name="choose" d="M512 960v0c-282.77 0-512-229.23-512-512v0c0-282.77 229.23-512 512-512s512 229.23 512 512c0 282.77-229.23 512-512 512zM512 846.222c219.932 0 398.222-178.29 398.222-398.222s-178.29-398.222-398.222-398.222c-219.932 0-398.222 178.29-398.222 398.222v0c0 219.932 178.29 398.222 398.222 398.222v0z" />
<glyph unicode="&#xe903;" glyph-name="searchDelete" horiz-adv-x="1277" d="M585.143 2.494c-257.064 0-465.455 208.391-465.455 465.455s208.391 465.455 465.455 465.455c257.064 0 465.455-208.391 465.455-465.455s-208.391-465.455-465.455-465.455zM752.088 696.014l-168.322-168.322-165.941 165.941-65.017-65.017 165.941-165.941-161.672-161.672 61.121-61.121 161.672 161.672 165.941-165.941 65.017 65.017-165.941 165.941 168.322 168.322-61.121 61.121z" />
<glyph unicode="&#xe904;" glyph-name="fold" d="M219.429 301.714h585.143l-292.571 292.571z" />
<glyph unicode="&#xe905;" glyph-name="geren" d="M959.776 85.56c0.273-36.508-23.491-67.304-56.009-78.874v-5.16h-784.453v5.16c-32.596 11.572-56.048 42.329-56.048 78.874 0 65.973 84.070 112.051 84.070 112.051l252.13 140.116v58.235c-66.951 38.772-112.053 110.999-112.053 193.895v84.032c0 123.818 100.328 224.147 224.107 224.147s224.145-100.328 224.145-224.147v-84.032c0-82.896-45.14-155.123-112.091-193.895v-58.235l252.168-140.116c0 0 83.601-48.229 84.033-112.051v0z" />
<glyph unicode="&#xe906;" glyph-name="select" horiz-adv-x="1396" d="M134.383 619.753l379.97-379.957 735.724 720.204 132.987-132.987-856.955-865.506-524.98 524.993 133.253 133.253z" />
<glyph unicode="&#xe907;" glyph-name="arrow" horiz-adv-x="1890" d="M78.769 881.231l866.462-866.462 866.462 866.462h-1732.923z" />
<glyph unicode="&#xe908;" glyph-name="chooseActive" d="M512 960v0c-282.77 0-512-229.23-512-512v0c0-282.77 229.23-512 512-512s512 229.23 512 512c0 282.77-229.23 512-512 512zM228.716 525.005s128.91-133.621 211.263-219.637c5.598-5.848 375.194 375.262 380.518 369.687 44.396-46.353 55.569-59.164 55.569-59.164l-429.807-426.94-283.284 273.067z" />
<glyph unicode="&#xe909;" glyph-name="next" horiz-adv-x="673" d="M125.279 952.773l496.523-496.523-483.767-513.024-103.804 103.804 384 405.943-396.376 396.376 103.424 103.424z" />
<glyph unicode="&#xe90a;" glyph-name="Triangle" horiz-adv-x="585" d="M585.143 448l-585.143-512v1024z" />
<glyph unicode="&#xe90b;" glyph-name="unfold" d="M219.429 557.714h585.143l-292.571-292.571z" />
<glyph unicode="&#xe90c;" glyph-name="vlog" horiz-adv-x="1144" d="M9.571 960h316.859c48.653-6.201 77.617-44.875 86.892-116.020s25.7-265.839 49.273-584.083c199.673 348.131 304.712 542.825 315.118 584.083s-9.178 65.148-58.752 71.672l11.659 44.347h375.597c30.397-8.729 42.678-27.666 36.843-56.813s-219.379-351.542-640.629-967.187h-317.913c-64.888 557.599-101.039 860.259-108.454 907.98-7.425 47.782-32.779 71.672-76.065 71.672l9.571 44.347z" />
<glyph unicode="&#xe90d;" glyph-name="edit" d="M585.143 960v-109.714h-475.429v-804.571h804.571v475.429h109.714v-548.571c0-20.198-16.374-36.571-36.571-36.571h-950.857c-20.198 0-36.571 16.374-36.571 36.571v950.857c0 20.198 16.374 36.571 36.571 36.571h548.571zM934.632 960l77.58-77.58-568.918-568.918-77.58 77.58 568.918 568.918z" />
<glyph unicode="&#xe90e;" glyph-name="location" horiz-adv-x="788" d="M393.846-64c-262.564 284.082-393.846 497.028-393.846 638.84 0 212.718 176.331 385.16 393.846 385.16s393.846-172.442 393.846-385.16c0-141.812-131.282-354.759-393.846-638.84zM393.846 448c87.006 0 157.538 70.532 157.538 157.538s-70.532 157.538-157.538 157.538c-87.006 0-157.538-70.532-157.538-157.538s70.532-157.538 157.538-157.538z" />
<glyph unicode="&#xe90f;" glyph-name="voice" horiz-adv-x="1132" d="M619.789 28.22v838.66l-285.102-262.827c-16.345-15.163-43.197-21.316-65.312-21.316h-188.533v-242.526h188.533c22.115 0 44.618-3.428 61.813-19.485l288.601-292.505zM80.842 663.579h180.137c23.983 0 30.912 10.303 35.442 13.474l282.536 270.604c9.059 6.341 18.211 12.343 40.832 12.343h26.947c29.661 0 53.895-32.145 53.895-56.115v-903.398c0-31.039-28.849-64.487-53.895-64.487h-26.947c-23.289 0-31.806 7.133-40.865 13.474l-302.492 305.024c-4.529 3.171-9.924 4.871-15.453 4.871h-180.137c-44.648 0-80.842 36.194-80.842 80.842v242.526c0 44.648 36.194 80.842 80.842 80.842zM800.256 561.009c-18.854 12.123-24.448 37.451-12.495 56.573s36.926 24.795 55.78 12.673c65.533-42.137 99.617-104.382 99.617-182.255s-34.084-140.118-99.617-182.255c-18.854-12.123-43.827-6.449-55.78 12.673s-6.358 44.45 12.495 56.573c42.253 27.168 62.062 63.344 62.062 113.009s-19.809 85.841-62.062 113.009zM907.869 718.545c-20.26 14.408-24.655 42.035-9.814 61.706s43.295 23.937 63.555 9.529c113.045-80.393 170.18-195.795 170.18-341.78s-57.134-261.388-170.18-341.78c-20.261-14.408-48.715-10.142-63.555 9.529s-10.446 47.298 9.814 61.706c89.057 63.333 143.079 152.040 143.079 270.545s-54.021 207.212-143.079 270.545z" />
<glyph unicode="&#xe910;" glyph-name="close" d="M589.245 448l434.755-434.755-77.245-77.245-434.755 434.755-434.755-434.755-77.245 77.245 434.755 434.755-434.755 434.755 77.245 77.245 434.755-434.755 434.755 434.755 77.245-77.245-434.755-434.755z" />
<glyph unicode="&#xe911;" glyph-name="camera" horiz-adv-x="1297" d="M114.615 799.868l202.485-1.49 136.25 135.209c17.049 16.919 40.095 26.413 64.115 26.413h242.673c23.985 0 47.001-9.467 64.045-26.344l136.618-135.279 221.699 1.538c62.836 0.436 114.129-50.149 114.565-112.986 0.002-0.263 0.003-0.526 0.003-0.789v-636.363c0-62.838-50.94-113.778-113.778-113.778h-1069.511c-62.838 0-113.778 50.94-113.778 113.778v636.315c0 62.838 50.94 113.778 113.778 113.778 0.279 0 0.558-0.001 0.837-0.003zM1160.533 641.422c25.135 0 45.511 20.376 45.511 45.511s-20.376 45.511-45.511 45.511c-25.135 0-45.511-20.376-45.511-45.511s20.376-45.511 45.511-45.511zM648.533 118.044c157.094 0 284.444 127.35 284.444 284.444s-127.35 284.444-284.444 284.444c-157.094 0-284.444-127.35-284.444-284.444s127.35-284.444 284.444-284.444zM648.533 186.311c-119.392 0-216.178 96.786-216.178 216.178s96.786 216.178 216.178 216.178c119.392 0 216.178-96.786 216.178-216.178s-96.786-216.178-216.178-216.178z" />
<glyph unicode="&#xe912;" glyph-name="time" d="M511.997 960c-282.741 0-511.997-229.256-511.997-512.117 0-282.743 229.256-511.883 511.997-511.883s512.003 229.14 512.003 511.763c0 282.622-229.261 512.237-512.003 512.237zM744.727 354.909h-325.818v325.818c0 27.065 19.489 46.545 46.545 46.545s46.545-20.582 46.545-46.545v-232.727h232.727c22.501 0 46.545-23.683 46.545-46.545 0-22.856-24.045-46.545-46.545-46.545z" />
<glyph unicode="&#xe913;" glyph-name="loading" d="M192 448c0 17.673 14.327 32 32 32s32-14.327 32-32v0c0-141.385 114.615-256 256-256s256 114.615 256 256c0 141.385-114.615 256-256 256v0c-17.673 0-32 14.327-32 32s14.327 32 32 32v0c176.736 0 320-143.264 320-320s-143.264-320-320-320-320 143.264-320 320z" />
</font>
</defs>
</svg>
