<?xml version="1.0" standalone="no"?><!DOCTYPE svg PUBLIC "-//W3C//DTD SVG 1.1//EN" "http://www.w3.org/Graphics/SVG/1.1/DTD/svg11.dtd"><svg class="icon" width="200px" height="200.00px" viewBox="0 0 1024 1024" version="1.1" xmlns="http://www.w3.org/2000/svg"><path fill="#333333" d="M682.9 399.9c-19.9-29.6-27.2-66.5-23.8-119.6 0-0.4-0.1-0.9 0-1.3 0-0.9 0-1.7-0.1-2.5l-0.3-2.4c-0.1-0.8-0.3-1.5-0.5-2.2-0.2-0.8-0.5-1.6-0.8-2.3-0.3-0.7-0.6-1.3-0.9-2l-1.2-2.1c-0.4-0.6-0.9-1.2-1.3-1.8-0.5-0.6-1-1.2-1.6-1.8-0.5-0.6-1.1-1.1-1.7-1.6-0.6-0.5-1.3-1-1.9-1.5-0.6-0.4-1.2-0.8-1.9-1.2l-2.4-1.2c-0.4-0.2-0.7-0.4-1.1-0.5-0.3-0.1-0.6-0.1-0.9-0.2-0.8-0.3-1.7-0.5-2.5-0.6-0.8-0.2-1.6-0.3-2.3-0.4-0.4 0-0.7-0.2-1.1-0.2-0.5 0-0.9 0.1-1.4 0.1-0.8 0-1.5 0-2.3 0.1-1 0.1-2 0.2-3 0.4-0.5 0.1-0.9 0.2-1.3 0.3-1.2 0.3-2.4 0.7-3.5 1.2l-0.6 0.3c-1.3 0.6-2.5 1.3-3.6 2.1-0.1 0.1-0.2 0.2-0.3 0.2-1.1 0.8-2.2 1.7-3.1 2.8l-0.5 0.5c-0.9 1-1.7 2-2.4 3.1l-0.6 0.9c-0.6 1-1.1 2.1-1.5 3.2-0.1 0.3-0.3 0.5-0.4 0.8l-149 405.7-4.6 10.2c-8.6 19.3-23.5 29.9-46.8 33.2-11.2 1.6-23.8 1-39.4-2.1-15.4-3.1-28.6-10.7-37-21.5-5.5-7-11.4-18.5-8.4-33.7 5.1-25.2 32.2-39.6 63.1-33.4l6.9 1.4c9.4 1.9 18.8 6.8 27.8 12 1.5 0.8 4.1 2 5.7 2.5 12.9 4 26.6-3.2 30.6-16.1 3.7-11.9-2.2-24.6-13.3-29.5-11.6-6.6-25.4-13.6-41.2-16.8l-6.9-1.4c-57.2-11.5-110.2 20-120.6 71.7-5.2 26 1.1 52.1 17.8 73.4 15.6 19.9 39 33.8 66.9 39.4 12.5 2.5 24.2 3.8 35.3 3.8 6.8 0 13.3-0.5 19.7-1.4 39.7-5.8 68.9-27.1 84.3-61.5l4.9-10.9c0.2-0.4 0.2-0.8 0.4-1.1 0.1-0.2 0.2-0.3 0.3-0.6L621.7 385c4.9 14.3 11.5 28.5 20.6 42.1 8.3 12.4 17.1 23 25.5 33.2 23.7 28.8 35.9 45.1 31.9 74.6-1.8 13.4 7.5 25.7 20.9 27.5 1.1 0.2 2.2 0.2 3.3 0.2 12 0 22.5-8.9 24.2-21.1 7.1-52-19.3-84-42.6-112.3-7.7-9.2-15.6-18.8-22.6-29.3z"  /><path fill="#333333" d="M700.9 789.4c-55.4 37.6-120.3 57.4-187.6 57.4-184.7 0-335-150.3-335-335 0-66.4 19.4-130.5 56-185.5 7.5-11.2 4.4-26.4-6.8-33.9s-26.4-4.4-33.9 6.8c-42 63-64.2 136.5-64.2 212.6 0 211.6 172.2 383.8 383.8 383.8 77.1 0 151.4-22.8 215-65.8 11.2-7.6 14.1-22.7 6.5-33.9-7.5-11.2-22.7-14.1-33.8-6.5zM513.3 128c-82 0-160.2 25.5-226.1 73.6-10.9 8-13.3 23.2-5.3 34.1 8 10.9 23.2 13.3 34.1 5.3 57.6-42 125.8-64.3 197.3-64.3 184.7 0 335 150.3 335 335 0 71.5-22.2 139.7-64.3 197.3-7.9 10.9-5.6 26.2 5.3 34.1 4.4 3.2 9.4 4.7 14.4 4.7 7.5 0 15-3.5 19.7-10 48.2-66 73.6-144.2 73.6-226.1 0.1-211.5-172.1-383.7-383.7-383.7z"  /></svg>