<?xml version="1.0" standalone="no"?><!DOCTYPE svg PUBLIC "-//W3C//DTD SVG 1.1//EN" "http://www.w3.org/Graphics/SVG/1.1/DTD/svg11.dtd"><svg class="icon" width="200px" height="200.00px" viewBox="0 0 1024 1024" version="1.1" xmlns="http://www.w3.org/2000/svg"><path fill="#333333" d="M512 42.666667C251.733333 42.666667 42.666667 251.733333 42.666667 512s209.066667 469.333333 469.333333 469.333333 469.333333-209.066667 469.333333-469.333333S772.266667 42.666667 512 42.666667zM512 938.666667C277.333333 938.666667 85.333333 746.666667 85.333333 512S277.333333 85.333333 512 85.333333s426.666667 192 426.666667 426.666667S746.666667 938.666667 512 938.666667zM704 234.666667c-2.133333 0-2.133333 0-2.133333 0l0 0-160-19.2C539.733333 213.333333 535.466667 213.333333 533.333333 213.333333c0 0-2.133333 0-2.133333 0l-2.133333 0 0 0c-10.666667 2.133333-19.2 10.666667-19.2 21.333333l0 384c-17.066667-12.8-40.533333-21.333333-64-21.333333l-42.666667 0c-59.733333 0-106.666667 46.933333-106.666667 106.666667s46.933333 106.666667 106.666667 106.666667l42.666667 0c59.733333 0 106.666667-46.933333 106.666667-106.666667L552.533333 386.133333l140.8 17.066667C697.6 405.333333 701.866667 405.333333 704 405.333333c0 0 2.133333 0 2.133333 0l2.133333 0 0 0c10.666667-2.133333 19.2-10.666667 19.2-21.333333l0-128C725.333333 243.2 716.8 234.666667 704 234.666667zM448 768l-42.666667 0c-36.266667 0-64-27.733333-64-64s27.733333-64 64-64l42.666667 0c36.266667 0 64 27.733333 64 64S484.266667 768 448 768zM682.666667 360.533333l-128-17.066667 0-87.466667 128 17.066667L682.666667 360.533333z" /></svg>