<?xml version="1.0" standalone="no"?><!DOCTYPE svg PUBLIC "-//W3C//DTD SVG 1.1//EN" "http://www.w3.org/Graphics/SVG/1.1/DTD/svg11.dtd"><svg class="icon" width="200px" height="200.00px" viewBox="0 0 1024 1024" version="1.1" xmlns="http://www.w3.org/2000/svg"><path d="M512 168.4c-181.6 0-328.8 147.2-328.8 328.8 0 75.4 25.4 144.9 68.1 200.2h47.9c-49.3-52.2-79.5-122.8-79.5-200.2 0-161.5 130.8-292.3 292.3-292.3s292.3 130.8 292.3 292.3c0 77.5-30.1 148-79.5 200.2h47.9c42.7-55.4 68.1-124.8 68.1-200.2 0-181.6-147.2-328.8-328.8-328.8z" fill="#FFFFFF" /><path d="M777.2 706.6h-73.5l14.5-15.4c49.6-52.6 77-121.5 77-193.9 0-156.1-127-283.1-283.1-283.1S229 341.2 229 497.3c0 72.5 27.3 141.4 77 193.9l14.5 15.4H247l-2.7-3.6c-45.8-59.3-70-130.5-70-205.8 0-186.4 151.6-337.9 337.9-337.9s337.9 151.6 337.9 337.9c0 75.3-24.2 146.5-70 205.8l-2.9 3.6z m-32.1-18.3h23.1c41.6-55.4 63.5-121.3 63.5-191.1 0-176.3-143.4-319.7-319.7-319.7S192.3 320.9 192.3 497.2c0 69.7 22 135.7 63.5 191.1H279c-44.2-53.7-68.4-120.8-68.4-191.1 0-166.2 135.2-301.4 301.4-301.4S813.4 331 813.4 497.2c0 70.3-24.1 137.4-68.3 191.1z" fill="#436AFB" /><path d="M512 150.1c-191.6 0-347.1 155.3-347.1 347.1H238c0-151.4 122.8-274 274-274s274 122.6 274 274h73.1c0-191.8-155.5-347.1-347.1-347.1z" fill="#E0E7FC" /><path d="M868.2 506.3h-91.3v-9.1c0-146.1-118.8-264.9-264.9-264.9S247.1 351.2 247.1 497.2v9.1h-91.3v-9.1C155.8 300.8 315.6 141 512 141c196.4 0 356.2 159.8 356.2 356.2v9.1zM795 488.1h54.8C845 305.9 695.3 159.3 512 159.3S179 305.9 174.2 488.1H229c4.8-151.9 129.9-274 283-274s278.2 122.1 283 274z" fill="#436AFB" /><path d="M644.913 873.886l45.677-79.047 15.844 9.155-45.677 79.048z" fill="#436AFB" /><path d="M765.6 847.6L734 829.3l102.7-179.8 31.6 18.3c17.5 10.1 23.5 32.4 13.4 49.9l-66.2 116.5c-10.1 17.5-32.4 23.5-49.9 13.4z" fill="#FE2973" /><path d="M684 842.7l-15.8-9.1c-17.5-10.1-23.5-32.4-13.4-49.9l102.7-179.8c10.1-17.5 32.4-23.5 49.9-13.4l15.8 9.1c17.5 10.1 23.5 32.4 13.4 49.9L734 829.3c-10.1 17.5-32.5 23.5-50 13.4z" fill="#FFFFFF" /><path d="M702.2 856.7c-7.7 0-15.6-2-22.7-6.1l-15.8-9.1c-10.6-6.1-18.1-15.9-21.3-27.7-3.2-11.8-1.5-24.1 4.6-34.6l102.6-179.7c12.6-21.8 40.6-29.4 62.4-16.7l15.8 9.1c10.6 6.1 18.1 15.9 21.3 27.7 3.2 11.8 1.5 24.1-4.6 34.6L741.9 833.8c-8.5 14.7-23.9 22.9-39.7 22.9z m-13.6-21.9c13.1 7.5 29.9 3 37.4-10L828.7 645c3.7-6.4 4.7-13.8 2.8-20.8-1.9-7.1-6.4-13-12.8-16.6l-15.8-9.1c-13.1-7.5-29.9-3.1-37.4 10L662.8 788.2c-3.7 6.4-4.7 13.8-2.8 20.8 1.9 7.1 6.4 13 12.8 16.7l15.8 9.1z" fill="#436AFB" /><path d="M258.4 847.6l31.6-18.3-102.6-179.8-31.6 18.3c-17.5 10.1-23.5 32.4-13.4 49.9l66.2 116.5c10 17.5 32.3 23.5 49.8 13.4z" fill="#FE2973" /><path d="M340 842.7l15.8-9.1c17.5-10.1 23.5-32.4 13.4-49.9L266.5 603.9c-10.1-17.5-32.4-23.5-49.9-13.4l-15.8 9.1c-17.5 10.1-23.5 32.4-13.4 49.9L290 829.3c10.1 17.5 32.5 23.5 50 13.4z" fill="#FFFFFF" /><path d="M321.8 856.7c-15.8 0-31.2-8.2-39.6-22.8L179.4 654.1c-6.1-10.5-7.7-22.8-4.5-34.6s10.7-21.6 21.3-27.7l15.8-9.1c10.6-6.1 22.9-7.8 34.7-4.6 11.8 3.1 21.6 10.7 27.7 21.3l102.7 179.8c6.1 10.5 7.7 22.8 4.5 34.6s-10.7 21.6-21.3 27.7l-15.8 9.2c-7.1 4-15 6-22.7 6z m-87-262c-4.8 0-9.4 1.2-13.7 3.7l-15.8 9.1c-6.3 3.7-10.9 9.6-12.8 16.6-1.9 7.1-0.9 14.4 2.7 20.8L298 824.8c7.5 13.1 24.3 17.6 37.4 10l15.8-9.1c6.3-3.7 10.9-9.6 12.8-16.7 1.9-7.1 0.9-14.4-2.7-20.8L258.5 608.4c-3.6-6.3-9.6-10.8-16.6-12.7-2.4-0.7-4.8-1-7.1-1z" fill="#436AFB" /></svg>