<?xml version="1.0" standalone="no"?><!DOCTYPE svg PUBLIC "-//W3C//DTD SVG 1.1//EN" "http://www.w3.org/Graphics/SVG/1.1/DTD/svg11.dtd"><svg class="icon" width="200px" height="200.00px" viewBox="0 0 1024 1024" version="1.1" xmlns="http://www.w3.org/2000/svg"><path fill="#333333" d="M763.276419 471.349161c-9.200546-9.17394-24.1357-9.17394-33.288151 0L534.775214 666.540725 534.775214 134.86971c0-12.988826-10.552334-23.539112-23.540136-23.539112s-23.539112 10.550287-23.539112 23.539112l0 531.671015L292.498262 471.349161c-9.1678-9.17394-24.109094-9.17394-33.284057 0-9.172917 9.17394-9.172917 24.11728 0 33.283034l235.397265 235.375775c4.624321 4.643764 10.645454 6.901177 16.667611 6.901177s12.044314-2.300392 16.666588-6.901177l235.418754-235.418754c9.152451-9.17394 9.152451-24.116257 0-33.283034L763.276419 471.349161zM887.870088 911.680888 134.591883 911.680888c-38.937824 0-70.619384-31.674397-70.619384-70.612221l0-94.15952c0-12.967336 10.55131-23.540136 23.539112-23.540136 12.988826 0 23.539112 10.5728 23.539112 23.540136l0 94.15952c0 12.960173 10.558473 23.540136 23.540136 23.540136l753.278205 0c12.967336 0 23.540136-10.579963 23.540136-23.540136l0-94.15952c0-12.967336 10.573823-23.540136 23.541159-23.540136 12.96529 0 23.538089 10.5728 23.538089 23.540136l0 94.15952C958.489472 880.006492 926.807912 911.680888 887.870088 911.680888z" /></svg>