<?xml version="1.0" standalone="no"?><!DOCTYPE svg PUBLIC "-//W3C//DTD SVG 1.1//EN" "http://www.w3.org/Graphics/SVG/1.1/DTD/svg11.dtd"><svg class="icon" width="200px" height="200.00px" viewBox="0 0 1024 1024" version="1.1" xmlns="http://www.w3.org/2000/svg"><path fill="#333333" d="M671.325272 855.567503H352.163086c-36.940542 0-66.922754-29.982212-66.922754-66.922754V549.503348l-32.02878 33.359048c-5.218747 5.423404-12.484061 8.595583-20.056361 8.595583-7.572299 0-14.837614-3.069851-20.05636-8.595583L87.644249 452.291396c-10.335165-10.744479-10.335165-27.833317 0-38.577796l225.224743-234.741281c5.116419-6.344359 12.893375-10.437494 21.591286-10.437493h74.392725c15.349256 0 27.833317 12.484061 27.833317 27.833316 0 33.052064 41.852303 62.420306 74.802038 62.420306s74.802039-29.368242 74.802039-62.420306c0-15.349256 12.484061-27.833317 27.833316-27.833316h74.699711c9.209553 0 17.395823 4.502448 22.409913 11.358449l225.122414 234.331967c10.335165 10.744479 10.335165 27.833317 0 38.577796L811.105826 583.476367c-5.218747 5.423404-12.484061 8.595583-20.056361 8.595583-7.572299 0-14.837614-3.069851-20.05636-8.493255l-32.64275-33.870691v239.039073c-0.102328 36.838213-30.186869 66.820426-67.025083 66.820426z m-358.251624-403.173779c3.479165 0 7.060658 0.61397 10.437494 2.046568 10.539822 4.297792 17.498151 14.530629 17.498151 25.889077v308.31538c0 6.139702 5.01409 11.153792 11.153793 11.153792H671.325272c6.139702 0 11.153792-5.01409 11.153793-11.153792v-308.008394c0-11.358449 6.856001-21.591286 17.395823-25.889078 10.539822-4.297792 22.61457-1.637254 30.493854 6.549016l60.476067 62.72729 86.774458-90.35595-200.870591-209.466174h-38.680124c-15.553912 53.210752-73.778755 90.253622-126.580194 90.253622S400.564405 277.309883 385.010493 224.201459h-38.270811L146.380733 432.951334l86.67213 90.355951 59.862097-62.317978c5.423404-5.525732 12.791046-8.595583 20.158688-8.595583z" /></svg>