<?xml version="1.0" standalone="no"?><!DOCTYPE svg PUBLIC "-//W3C//DTD SVG 1.1//EN" "http://www.w3.org/Graphics/SVG/1.1/DTD/svg11.dtd"><svg class="icon" width="200px" height="200.00px" viewBox="0 0 1024 1024" version="1.1" xmlns="http://www.w3.org/2000/svg"><path fill="#333333" d="M938.64603 192.015222v639.969556H85.35397V192.015222h853.29206m0-63.996547H85.35397c-35.344996 0-63.996546 28.652574-63.996546 63.996547v639.969556c0 35.344996 28.652574 63.996546 63.996546 63.996547h853.29206c35.344996 0 63.996546-28.652574 63.996546-63.996547V192.015222c0-35.344996-28.65155-63.996546-63.996546-63.996547zM426.670589 362.674043L661.325957 512 426.670589 661.325957v-298.651914m-0.00307-63.99757a63.949474 63.949474 0 0 0-30.79333 7.897878 63.993476 63.993476 0 0 0-33.201169 56.098669v298.651914a63.99143 63.99143 0 0 0 33.201169 56.098669 63.941288 63.941288 0 0 0 30.79333 7.897877 63.964824 63.964824 0 0 0 34.360576-10.004865l234.655368-149.325957c18.460444-11.746532 29.639041-32.110325 29.63904-53.991681s-11.178597-42.24515-29.63904-53.991682l-234.654345-149.325957a63.968917 63.968917 0 0 0-34.361599-10.004865z" /></svg>