<?xml version="1.0" standalone="no"?><!DOCTYPE svg PUBLIC "-//W3C//DTD SVG 1.1//EN" "http://www.w3.org/Graphics/SVG/1.1/DTD/svg11.dtd"><svg class="icon" width="200px" height="200.00px" viewBox="0 0 1024 1024" version="1.1" xmlns="http://www.w3.org/2000/svg"><path fill="#333333" d="M297.456941 530.823529l-12.333176 0c-14.426353 0-26.127059 11.760941-26.127059 26.262588l0 260.788706c0 14.471529 11.715765 26.232471 26.127059 26.232471l12.333176 0c14.426353 0 26.172235-11.760941 26.172235-26.232471L323.629176 557.086118C323.629176 542.584471 311.883294 530.823529 297.456941 530.823529zM523.158588 368.489412l-12.860235 0c-14.531765 0-26.307765 11.504941-26.307765 25.660235l0 424.267294c0 14.170353 11.776 25.705412 26.307765 25.705412l12.860235 0c14.546824 0 26.307765-11.535059 26.307765-25.705412L549.466353 394.149647C549.451294 379.979294 537.705412 368.489412 523.158588 368.489412zM748.333176 191.593412l-12.348235 0c-14.411294 0-26.142118 11.504941-26.142118 25.675294l0 601.148235c0 14.170353 11.730824 25.705412 26.142118 25.705412l12.348235 0c14.411294 0 26.112-11.535059 26.112-25.705412l0-601.148235C774.460235 203.083294 762.744471 191.593412 748.333176 191.593412zM774.836706 14.230588 256.120471 14.230588c-131.011765 0-237.583059 106.586353-237.583059 237.583059l0 518.701176c0 130.996706 106.586353 237.583059 237.583059 237.583059l518.716235 0c130.996706 0 237.583059-106.586353 237.583059-237.583059L1012.419765 251.828706C1012.419765 120.816941 905.833412 14.230588 774.836706 14.230588zM981.835294 770.529882c0 114.145882-92.852706 206.998588-206.998588 206.998588L256.120471 977.528471c-114.145882 0-207.013647-92.852706-207.013647-206.998588L49.106824 251.828706c0-114.145882 92.867765-206.998588 207.013647-206.998588l518.716235 0c114.145882 0 206.998588 92.852706 206.998588 206.998588L981.835294 770.529882z" /></svg>