<?xml version="1.0" standalone="no"?><!DOCTYPE svg PUBLIC "-//W3C//DTD SVG 1.1//EN" "http://www.w3.org/Graphics/SVG/1.1/DTD/svg11.dtd"><svg class="icon" width="200px" height="200.00px" viewBox="0 0 1024 1024" version="1.1" xmlns="http://www.w3.org/2000/svg"><path fill="#333333" d="M786.285714 146.285714v548.571429a106.057143 106.057143 0 1 1-36.571428-80.091429V315.977143l-402.285715 100.571428V804.571429a106.057143 106.057143 0 1 1-36.571428-80.091429V256a18.285714 18.285714 0 0 1 13.860571-17.737143l438.857143-109.714286A18.285714 18.285714 0 0 1 786.285714 146.285714z m-36.571428 132.022857V169.691429l-402.285715 100.571428v108.617143l402.285715-100.571429zM241.371429 874.057143a69.485714 69.485714 0 1 0 0-138.971429 69.485714 69.485714 0 0 0 0 138.971429z m438.857142-109.714286a69.485714 69.485714 0 1 0 0-138.971428 69.485714 69.485714 0 0 0 0 138.971428z" /></svg>