<?xml version="1.0" standalone="no"?><!DOCTYPE svg PUBLIC "-//W3C//DTD SVG 1.1//EN" "http://www.w3.org/Graphics/SVG/1.1/DTD/svg11.dtd"><svg class="icon" width="200px" height="200.00px" viewBox="0 0 1024 1024" version="1.1" xmlns="http://www.w3.org/2000/svg"><path fill="#333333" d="M237.714286 384v256H438.857143a18.285714 18.285714 0 0 1 12.946286 5.339429l151.625142 151.661714V226.998857l-151.625142 151.661714A18.285714 18.285714 0 0 1 438.857143 384H237.714286z m193.572571 292.571429H219.428571a18.285714 18.285714 0 0 1-18.285714-18.285715v-292.571428a18.285714 18.285714 0 0 1 18.285714-18.285715h211.858286l177.481143-177.517714A18.285714 18.285714 0 0 1 640 182.857143v658.285714a18.285714 18.285714 0 0 1-31.232 12.946286L431.286857 676.571429z m354.084572-74.057143a18.285714 18.285714 0 1 1-25.856-25.856A91.062857 91.062857 0 0 0 786.285714 512a91.062857 91.062857 0 0 0-26.770285-64.658286 18.285714 18.285714 0 1 1 25.856-25.856A127.634286 127.634286 0 0 1 822.857143 512a127.634286 127.634286 0 0 1-37.485714 90.514286z" /></svg>