<?xml version="1.0" standalone="no"?><!DOCTYPE svg PUBLIC "-//W3C//DTD SVG 1.1//EN" "http://www.w3.org/Graphics/SVG/1.1/DTD/svg11.dtd"><svg class="icon" width="200px" height="200.00px" viewBox="0 0 1024 1024" version="1.1" xmlns="http://www.w3.org/2000/svg"><path fill="#333333" d="M510.6257 82.909292c-241.509473 0-437.293531 195.784058-437.293531 437.293531 0 241.511519 195.784058 437.293531 437.293531 437.293531 241.511519 0 437.293531-195.782012 437.293531-437.293531C947.919231 278.69335 752.137219 82.909292 510.6257 82.909292zM510.6257 919.471318c-220.508159 0-399.268496-178.75829-399.268496-399.268496s178.760336-399.268496 399.268496-399.268496c220.510206 0 399.268496 178.75829 399.268496 399.268496S731.135906 919.471318 510.6257 919.471318zM715.169259 618.972337 529.638729 513.813299 529.638729 244.517993c0-5.249561-4.254907-9.506515-9.506515-9.506515l-19.013029 0c-5.249561 0-9.504468 4.256954-9.504468 9.506515l0 285.191344c0 1.950422 0.589424 3.76372 1.597381 5.273097 0.813528 1.656733 2.116197 3.095501 3.843538 4.073782l199.38098 113.009843c4.571109 2.583848 10.369162 0.977257 12.957103-3.591805l9.365298-16.544815C721.345935 627.359354 719.739345 621.558232 715.169259 618.972337z" /></svg>