<?xml version="1.0" standalone="no"?><!DOCTYPE svg PUBLIC "-//W3C//DTD SVG 1.1//EN" "http://www.w3.org/Graphics/SVG/1.1/DTD/svg11.dtd"><svg class="icon" width="200px" height="200.00px" viewBox="0 0 1024 1024" version="1.1" xmlns="http://www.w3.org/2000/svg"><path fill="#333333" d="M512 1255.489906M498.081951 943.76654M785.960424 410.377773c0-14.634419-11.871277-26.608035-26.608035-26.608035L204.677194 383.769738c-14.634419 0-26.608035 11.871277-26.608035 26.608035l0 349.998001c0 14.634419 11.871277 26.608035 26.608035 26.608035l554.675195 0c14.634419 0 26.608035-11.871277 26.608035-26.608035L785.960424 410.377773zM740.931441 741.954827 223.098141 741.954827 223.098141 428.798721l517.8333 0L740.931441 741.954827zM856.471717 294.735159l-554.675195 0c-12.485309 0-22.514491 10.029182-22.514491 22.514491s10.029182 22.514491 22.514491 22.514491L838.153108 339.764142l0 331.679392c0 12.485309 10.029182 22.514491 22.514491 22.514491s22.514491-10.029182 22.514491-22.514491l0-349.998001C883.182091 306.708775 871.106136 294.735159 856.471717 294.735159z" /></svg>