<?xml version="1.0" standalone="no"?><!DOCTYPE svg PUBLIC "-//W3C//DTD SVG 1.1//EN" "http://www.w3.org/Graphics/SVG/1.1/DTD/svg11.dtd"><svg class="icon" width="200px" height="200.00px" viewBox="0 0 1024 1024" version="1.1" xmlns="http://www.w3.org/2000/svg"><path fill="#333333" d="M1.019092 373.455163l166.925033 0 0 579.599634 153.01411-153.01411 18.54689 13.909916L172.580092 980.875636c-9.273949 6.152424-18.54689 16.959947-27.820839 32.457813l-18.54689-9.273949c15.426373-21.668415 21.596922-34.044756 18.54689-37.094787L144.759254 396.640034 1.019092 396.640034 1.019092 373.455163zM65.933711 30.332156l18.54689-13.909916 171.561 194.745872-18.54689 13.909916L65.933711 30.332156zM334.868151 280.719705l533.222842 0 0 23.183865L334.868151 303.903569 334.868151 280.719705zM376.599913 62.789969l630.595275 0 0 825.350209c6.152424 95.78549-43.318704 140.619644-148.377136 134.46722-15.497866 0-43.318704-1.586943-83.453454-4.636974-27.820839 0-46.367729 0-55.641678 0l4.636974-23.183865c9.273949 0 26.233896 0 51.004703 0 37.085725 3.050032 64.906564 4.636974 83.453454 4.636974 89.614941 6.152424 131.345695-30.941356 125.193271-111.283355L984.011323 85.973833 376.599913 85.973833 376.599913 62.789969zM404.420751 484.738518l389.481674 0L793.902425 823.224551 404.420751 823.224551 404.420751 484.738518zM770.727623 507.922383 427.604616 507.922383l0 292.118304 343.123007 0L770.727623 507.922383z" /></svg>