<?xml version="1.0" standalone="no"?><!DOCTYPE svg PUBLIC "-//W3C//DTD SVG 1.1//EN" "http://www.w3.org/Graphics/SVG/1.1/DTD/svg11.dtd"><svg class="icon" width="200px" height="200.00px" viewBox="0 0 1024 1024" version="1.1" xmlns="http://www.w3.org/2000/svg"><path fill="#333333" d="M726.277689 227.555556l-91.886933 138.899911L539.420444 227.555556 726.277689 227.555556zM619.793067 398.222222 415.9488 398.222222l101.910756 387.629511L619.793067 398.222222zM422.752711 375.466667l190.225067 0-95.118222-139.127467L422.752711 375.466667zM401.351111 366.455467 496.310044 227.555556 309.464178 227.555556 401.351111 366.455467zM496.264533 793.156267 392.430933 398.222222 168.721067 398.222222 496.264533 793.156267zM169.039644 375.466667l210.989511 0-91.909689-138.934044L169.039644 375.466667zM747.463111 236.782933 655.712711 375.466667l210.625422 0L747.463111 236.782933zM643.310933 398.222222l-103.844978 394.899911L866.656711 398.222222 643.310933 398.222222z" /></svg>