<svg xmlns="http://www.w3.org/2000/svg" width="24" height="13" viewBox="0 0 24 13">
  <metadata><?xpacket begin="﻿" id="W5M0MpCehiHzreSzNTczkc9d"?>
<x:xmpmeta xmlns:x="adobe:ns:meta/" x:xmptk="Adobe XMP Core 5.6-c140 79.160451, 2017/05/06-01:08:21        ">
   <rdf:RDF xmlns:rdf="http://www.w3.org/1999/02/22-rdf-syntax-ns#">
      <rdf:Description rdf:about=""/>
   </rdf:RDF>
</x:xmpmeta>
                                                                                                    
                                                                                                    
                                                                                                    
                                                                                                    
                                                                                                    
                                                                                                    
                                                                                                    
                                                                                                    
                                                                                                    
                                                                                                    
                                                                                                    
                                                                                                    
                                                                                                    
                                                                                                    
                                                                                                    
                                                                                                    
                                                                                                    
                                                                                                    
                                                                                                    
                                                                                                    
                           
<?xpacket end="w"?></metadata>
<defs>
    <style>
      .cls-1 {
        fill: #ff4747;
        fill-rule: evenodd;
      }
    </style>
  </defs>
  <path id="形状_1" data-name="形状 1" class="cls-1" d="M-43-5a7.826,7.826,0,0,0,0,1c3.235,0,5,25,5,25h8L-15-3V-5H-25v1c5.673,0-6,16-6,16h-1S-32.35-5-35-5h-8Z"/>
  <path id="形状_2" data-name="形状 2" class="cls-1" d="M1,1L12,12,23,1H1Z"/>
  <path id="矩形_1" data-name="矩形 1" class="cls-1" d="M66-17.385L84.385,1,66,19.385,47.615,1Zm0,5.657L78.728,1,66,13.728,53.272,1Zm-2.828-2.828L66-11.728,50.444,3.828,47.615,1ZM53.272,1L66,13.728l-2.828,2.828L50.444,3.828ZM66-17.385l2.828,2.828L66-11.728l-2.828-2.828Zm0,31.113,2.828,2.828L66,19.385l-2.828-2.828Z"/>
  <path id="椭圆_1" data-name="椭圆 1" class="cls-1" d="M153-13A15,15,0,0,1,168,2c0,5.116-5.972,16.062-15,23-9.146-6.911-15-17.961-15-23A15,15,0,0,1,153-13Zm0,7a6.265,6.265,0,0,1,6,6.5,6.019,6.019,0,1,1-12,0A6.265,6.265,0,0,1,153-6Z"/>
  <path id="形状_3_拷贝" data-name="形状 3 拷贝" class="cls-1" d="M200-10c-3.084,0-9,5.018-9,11s5,10,5,10v1s-14,6.1-14,10,4,4,4,4h14V-10Zm0,0c3.084,0,9,5.018,9,11s-5,10-5,10v1s14,6.1,14,10-4,4-4,4H200V-10Z"/>
  <path id="椭圆_2" data-name="椭圆 2" class="cls-1" d="M-21.5,43A16.5,16.5,0,0,1-5,59.5,16.5,16.5,0,0,1-21.5,76,16.5,16.5,0,0,1-38,59.5,16.5,16.5,0,0,1-21.5,43ZM-25,59h12l1,2.053L-13,63H-24a6.043,6.043,0,0,1-1-1.135V59Zm0-8,2.009-1L-21,51v8h-4V51Z"/>
  <path id="椭圆_3" data-name="椭圆 3" class="cls-1" d="M27.5,46A22.5,22.5,0,1,1,5,68.5,22.5,22.5,0,0,1,27.5,46Zm0,5A17.5,17.5,0,1,1,10,68.5,17.5,17.5,0,0,1,27.5,51Z"/>
</svg>
