<svg xmlns="http://www.w3.org/2000/svg" width="11" height="22" viewBox="0 0 11 22">
  <metadata><?xpacket begin="﻿" id="W5M0MpCehiHzreSzNTczkc9d"?>
<x:xmpmeta xmlns:x="adobe:ns:meta/" x:xmptk="Adobe XMP Core 5.6-c140 79.160451, 2017/05/06-01:08:21        ">
   <rdf:RDF xmlns:rdf="http://www.w3.org/1999/02/22-rdf-syntax-ns#">
      <rdf:Description rdf:about=""/>
   </rdf:RDF>
</x:xmpmeta>
                                                                                                    
                                                                                                    
                                                                                                    
                                                                                                    
                                                                                                    
                                                                                                    
                                                                                                    
                                                                                                    
                                                                                                    
                                                                                                    
                                                                                                    
                                                                                                    
                                                                                                    
                                                                                                    
                                                                                                    
                                                                                                    
                                                                                                    
                                                                                                    
                                                                                                    
                                                                                                    
                           
<?xpacket end="w"?></metadata>
<defs>
    <style>
      .cls-1 {
        fill: #ff4747;
        fill-rule: evenodd;
      }
    </style>
  </defs>
  <path id="形状_1" data-name="形状 1" class="cls-1" d="M-67,1a7.826,7.826,0,0,0,0,1c3.235,0,5,25,5,25h8L-39,3V1H-49V2c5.673,0-6,16-6,16h-1S-56.35,1-59,1h-8Z"/>
  <path id="形状_2" data-name="形状 2" class="cls-1" d="M0,22L11,11,0,0V22Z"/>
  <path id="椭圆_4" data-name="椭圆 4" class="cls-1" d="M64.5,55A22.5,22.5,0,1,1,42,77.5,22.5,22.5,0,0,1,64.5,55ZM52.051,74.116s5.665,5.872,9.284,9.652c0.246,0.257,16.488-16.491,16.722-16.246,1.951,2.037,2.442,2.6,2.442,2.6L61.611,88.884l-12.449-12Z"/>
  <path id="矩形_2_拷贝" data-name="矩形 2 拷贝" class="cls-1" d="M-76.971,103.2l38.77,38.77-2.828,2.828-38.77-38.77Zm36.1-.187-39.119,39.118,2.854,2.854,39.119-39.118Z"/>
  <path id="矩形_1" data-name="矩形 1" class="cls-1" d="M42-11.385L60.385,7,42,25.385,23.615,7Zm0,5.657L54.728,7,42,19.728,29.272,7ZM39.172-8.556L42-5.728,26.444,9.828,23.615,7ZM29.272,7L42,19.728l-2.828,2.828L26.444,9.828ZM42-11.385l2.828,2.828L42-5.728,39.172-8.556Zm0,31.113,2.828,2.828L42,25.385l-2.828-2.828Z"/>
  <path id="椭圆_1" data-name="椭圆 1" class="cls-1" d="M129-7A15,15,0,0,1,144,8c0,5.116-5.972,16.062-15,23-9.146-6.911-15-17.961-15-23A15,15,0,0,1,129-7Zm0,7a6.265,6.265,0,0,1,6,6.5,6.019,6.019,0,1,1-12,0A6.265,6.265,0,0,1,129,0Z"/>
  <path id="形状_3_拷贝" data-name="形状 3 拷贝" class="cls-1" d="M176-4c-3.084,0-9,5.018-9,11s5,10,5,10v1s-14,6.1-14,10,4,4,4,4h14V-4Zm0,0c3.084,0,9,5.018,9,11s-5,10-5,10v1s14,6.1,14,10-4,4-4,4H176V-4Z"/>
  <path id="椭圆_2" data-name="椭圆 2" class="cls-1" d="M-45.5,49A16.5,16.5,0,0,1-29,65.5,16.5,16.5,0,0,1-45.5,82,16.5,16.5,0,0,1-62,65.5,16.5,16.5,0,0,1-45.5,49ZM-49,65h12l1,2.053L-37,69H-48a6.043,6.043,0,0,1-1-1.135V65Zm0-8,2.009-1L-45,57v8h-4V57Z"/>
  <path id="椭圆_3" data-name="椭圆 3" class="cls-1" d="M3.5,52A22.5,22.5,0,1,1-19,74.5,22.5,22.5,0,0,1,3.5,52Zm0,5A17.5,17.5,0,1,1-14,74.5,17.5,17.5,0,0,1,3.5,57Z"/>
</svg>
