<svg xmlns="http://www.w3.org/2000/svg" width="45" height="45" viewBox="0 0 45 45">
  <metadata><?xpacket begin="﻿" id="W5M0MpCehiHzreSzNTczkc9d"?>
<x:xmpmeta xmlns:x="adobe:ns:meta/" x:xmptk="Adobe XMP Core 5.6-c140 79.160451, 2017/05/06-01:08:21        ">
   <rdf:RDF xmlns:rdf="http://www.w3.org/1999/02/22-rdf-syntax-ns#">
      <rdf:Description rdf:about=""/>
   </rdf:RDF>
</x:xmpmeta>
                                                                                                    
                                                                                                    
                                                                                                    
                                                                                                    
                                                                                                    
                                                                                                    
                                                                                                    
                                                                                                    
                                                                                                    
                                                                                                    
                                                                                                    
                                                                                                    
                                                                                                    
                                                                                                    
                                                                                                    
                                                                                                    
                                                                                                    
                                                                                                    
                                                                                                    
                                                                                                    
                           
<?xpacket end="w"?></metadata>
<defs>
    <style>
      .cls-1 {
        fill: #ff4747;
        fill-rule: evenodd;
      }
    </style>
  </defs>
  <path id="形状_1" data-name="形状 1" class="cls-1" d="M-109-54a7.912,7.912,0,0,0,0,1c3.235,0,5,25,5,25h8l15-24v-2H-91v1c5.673,0-6,16-6,16h-1s-0.35-17-3-17h-8Z"/>
  <path id="形状_2" data-name="形状 2" class="cls-1" d="M-28-33l11-11L-28-55v22Z"/>
  <path id="椭圆_4" data-name="椭圆 4" class="cls-1" d="M22.5,0A22.5,22.5,0,1,1,0,22.5,22.5,22.5,0,0,1,22.5,0ZM10.051,19.116s5.665,5.872,9.284,9.652c0.246,0.257,16.488-16.491,16.722-16.246,1.951,2.037,2.442,2.6,2.442,2.6L19.611,33.884l-12.449-12Z"/>
  <path id="矩形_1" data-name="矩形 1" class="cls-1" d="M0-66.385L18.385-48,0-29.615-18.385-48Zm0,5.657L12.728-48,0-35.272-12.728-48Zm-2.828-2.828L0-60.728-15.556-45.172-18.385-48ZM-12.728-48L0-35.272l-2.828,2.828L-15.556-45.172ZM0-66.385l2.828,2.828L0-60.728l-2.828-2.828ZM0-35.272l2.828,2.828L0-29.615l-2.828-2.828Z"/>
  <path id="椭圆_1" data-name="椭圆 1" class="cls-1" d="M87-62a15,15,0,0,1,15,15c0,5.116-5.972,16.062-15,23-9.146-6.911-15-17.961-15-23A15,15,0,0,1,87-62Zm0,7a6.265,6.265,0,0,1,6,6.5A6.265,6.265,0,0,1,87-42a6.265,6.265,0,0,1-6-6.5A6.265,6.265,0,0,1,87-55Z"/>
  <path id="形状_3_拷贝" data-name="形状 3 拷贝" class="cls-1" d="M134-59c-3.084,0-9,5.017-9,11s5,10,5,10v1s-14,6.1-14,10,4,4,4,4h14V-59Zm0,0c3.084,0,9,5.017,9,11s-5,10-5,10v1s14,6.1,14,10-4,4-4,4H134V-59Z"/>
  <path id="椭圆_2" data-name="椭圆 2" class="cls-1" d="M-87.5-6A16.5,16.5,0,0,1-71,10.5,16.5,16.5,0,0,1-87.5,27,16.5,16.5,0,0,1-104,10.5,16.5,16.5,0,0,1-87.5-6ZM-91,10h12l1,2.053L-79,14H-90a6.043,6.043,0,0,1-1-1.135V10Zm0-8,2.009-1L-87,2v8h-4V2Z"/>
  <path id="椭圆_3" data-name="椭圆 3" class="cls-1" d="M-38.5-3A22.5,22.5,0,0,1-16,19.5,22.5,22.5,0,0,1-38.5,42,22.5,22.5,0,0,1-61,19.5,22.5,22.5,0,0,1-38.5-3Zm0,5A17.5,17.5,0,0,1-21,19.5,17.5,17.5,0,0,1-38.5,37,17.5,17.5,0,0,1-56,19.5,17.5,17.5,0,0,1-38.5,2Z"/>
</svg>
