<svg xmlns="http://www.w3.org/2000/svg" width="45" height="45" viewBox="0 0 45 45">
  <metadata><?xpacket begin="﻿" id="W5M0MpCehiHzreSzNTczkc9d"?>
<x:xmpmeta xmlns:x="adobe:ns:meta/" x:xmptk="Adobe XMP Core 5.6-c140 79.160451, 2017/05/06-01:08:21        ">
   <rdf:RDF xmlns:rdf="http://www.w3.org/1999/02/22-rdf-syntax-ns#">
      <rdf:Description rdf:about=""/>
   </rdf:RDF>
</x:xmpmeta>
                                                                                                    
                                                                                                    
                                                                                                    
                                                                                                    
                                                                                                    
                                                                                                    
                                                                                                    
                                                                                                    
                                                                                                    
                                                                                                    
                                                                                                    
                                                                                                    
                                                                                                    
                                                                                                    
                                                                                                    
                                                                                                    
                                                                                                    
                                                                                                    
                                                                                                    
                                                                                                    
                           
<?xpacket end="w"?></metadata>
<defs>
    <style>
      .cls-1 {
        fill: #ff4747;
        fill-rule: evenodd;
      }
    </style>
  </defs>
  <path id="形状_1" data-name="形状 1" class="cls-1" d="M-48-51a7.825,7.825,0,0,0,0,1c3.235,0,5,25,5,25h8l15-24v-2H-30v1c5.673,0-6,16-6,16h-1s-0.35-17-3-17h-8Z"/>
  <path id="形状_2" data-name="形状 2" class="cls-1" d="M-4-45L7-34,18-45H-4Z"/>
  <path id="矩形_1" data-name="矩形 1" class="cls-1" d="M61-63.385L79.385-45,61-26.615,42.615-45Zm0,5.657L73.728-45,61-32.272,48.272-45Zm-2.828-2.828L61-57.728,45.444-42.172,42.615-45ZM48.272-45L61-32.272l-2.828,2.828L45.444-42.172ZM61-63.385l2.828,2.828L61-57.728l-2.828-2.828Zm0,31.113,2.828,2.828L61-26.615l-2.828-2.828Z"/>
  <path id="椭圆_1" data-name="椭圆 1" class="cls-1" d="M148-59a15,15,0,0,1,15,15c0,5.116-5.972,16.062-15,23-9.146-6.911-15-17.961-15-23A15,15,0,0,1,148-59Zm0,7a6.265,6.265,0,0,1,6,6.5,6.265,6.265,0,0,1-6,6.5,6.265,6.265,0,0,1-6-6.5A6.265,6.265,0,0,1,148-52Z"/>
  <path id="形状_3_拷贝" data-name="形状 3 拷贝" class="cls-1" d="M195-56c-3.084,0-9,5.017-9,11s5,10,5,10v1s-14,6.1-14,10,4,4,4,4h14V-56Zm0,0c3.084,0,9,5.017,9,11s-5,10-5,10v1s14,6.1,14,10-4,4-4,4H195V-56Z"/>
  <path id="椭圆_2" data-name="椭圆 2" class="cls-1" d="M-26.5-3A16.5,16.5,0,0,1-10,13.5,16.5,16.5,0,0,1-26.5,30,16.5,16.5,0,0,1-43,13.5,16.5,16.5,0,0,1-26.5-3ZM-30,13h12l1,2.053L-18,17H-29a6.043,6.043,0,0,1-1-1.135V13Zm0-8,2.009-1L-26,5v8h-4V5Z"/>
  <path id="椭圆_3" data-name="椭圆 3" class="cls-1" d="M22.5,0A22.5,22.5,0,1,1,0,22.5,22.5,22.5,0,0,1,22.5,0Zm0,5A17.5,17.5,0,1,1,5,22.5,17.5,17.5,0,0,1,22.5,5Z"/>
</svg>
