<svg xmlns="http://www.w3.org/2000/svg" width="42" height="42" viewBox="0 0 42 42">
  <metadata><?xpacket begin="﻿" id="W5M0MpCehiHzreSzNTczkc9d"?>
<x:xmpmeta xmlns:x="adobe:ns:meta/" x:xmptk="Adobe XMP Core 5.6-c140 79.160451, 2017/05/06-01:08:21        ">
   <rdf:RDF xmlns:rdf="http://www.w3.org/1999/02/22-rdf-syntax-ns#">
      <rdf:Description rdf:about=""/>
   </rdf:RDF>
</x:xmpmeta>
                                                                                                    
                                                                                                    
                                                                                                    
                                                                                                    
                                                                                                    
                                                                                                    
                                                                                                    
                                                                                                    
                                                                                                    
                                                                                                    
                                                                                                    
                                                                                                    
                                                                                                    
                                                                                                    
                                                                                                    
                                                                                                    
                                                                                                    
                                                                                                    
                                                                                                    
                                                                                                    
                           
<?xpacket end="w"?></metadata>
<defs>
    <style>
      .cls-1 {
        fill: #ff4747;
        fill-rule: evenodd;
      }
    </style>
  </defs>
  <path id="形状_1" data-name="形状 1" class="cls-1" d="M0-103a7.832,7.832,0,0,0,0,1c3.235,0,5,25,5,25h8l15-24v-2H18v1c5.673,0-6,16-6,16H11s-0.35-17-3-17H0Z"/>
  <path id="形状_2" data-name="形状 2" class="cls-1" d="M81-82L92-93,81-104v22Z"/>
  <path id="椭圆_4" data-name="椭圆 4" class="cls-1" d="M131.5-49A22.5,22.5,0,0,1,154-26.5,22.5,22.5,0,0,1,131.5-4,22.5,22.5,0,0,1,109-26.5,22.5,22.5,0,0,1,131.5-49ZM119.051-29.884s5.666,5.872,9.284,9.652c0.246,0.257,16.488-16.491,16.723-16.246,1.95,2.037,2.442,2.6,2.442,2.6L128.611-15.116l-12.449-12Z"/>
  <path id="矩形_2_拷贝_3" data-name="矩形 2 拷贝 3" class="cls-1" d="M3.029,0.2L41.8,38.971,38.971,41.8,0.2,3.029Zm36.1-.187L21.014,18.133l2.854,2.854L41.986,2.868Zm-21,21L0.014,39.133l2.854,2.854L20.986,23.868Z"/>
  <path id="矩形_1" data-name="矩形 1" class="cls-1" d="M109-115.385L127.385-97,109-78.615,90.615-97Zm0,5.657L121.728-97,109-84.272,96.272-97Zm-2.828-2.828L109-109.728,93.444-94.172,90.615-97ZM96.272-97L109-84.272l-2.828,2.828L93.444-94.172ZM109-115.385l2.828,2.829L109-109.728l-2.828-2.828Zm0,31.113,2.828,2.828L109-78.615l-2.828-2.829Z"/>
  <path id="椭圆_1" data-name="椭圆 1" class="cls-1" d="M196-111a15,15,0,0,1,15,15c0,5.116-5.972,16.062-15,23-9.146-6.911-15-17.961-15-23A15,15,0,0,1,196-111Zm0,7a6.265,6.265,0,0,1,6,6.5,6.265,6.265,0,0,1-6,6.5,6.265,6.265,0,0,1-6-6.5A6.265,6.265,0,0,1,196-104Z"/>
  <path id="形状_3_拷贝" data-name="形状 3 拷贝" class="cls-1" d="M243-108c-3.084,0-9,5.018-9,11s5,10,5,10v1s-14,6.1-14,10,4,4,4,4h14v-36Zm0,0c3.084,0,9,5.018,9,11s-5,10-5,10v1s14,6.1,14,10-4,4-4,4H243v-36Z"/>
  <path id="椭圆_2" data-name="椭圆 2" class="cls-1" d="M21.5-55A16.5,16.5,0,0,1,38-38.5,16.5,16.5,0,0,1,21.5-22,16.5,16.5,0,0,1,5-38.5,16.5,16.5,0,0,1,21.5-55ZM18-39H30l1,2.053L30-35H19a6.043,6.043,0,0,1-1-1.135V-39Zm0-8,2.009-1L22-47v8H18v-8Z"/>
  <path id="椭圆_3" data-name="椭圆 3" class="cls-1" d="M70.5-52A22.5,22.5,0,0,1,93-29.5,22.5,22.5,0,0,1,70.5-7,22.5,22.5,0,0,1,48-29.5,22.5,22.5,0,0,1,70.5-52Zm0,5A17.5,17.5,0,0,1,88-29.5,17.5,17.5,0,0,1,70.5-12,17.5,17.5,0,0,1,53-29.5,17.5,17.5,0,0,1,70.5-47Z"/>
</svg>
