<svg xmlns="http://www.w3.org/2000/svg" width="30" height="38" viewBox="0 0 30 38">
  <metadata><?xpacket begin="﻿" id="W5M0MpCehiHzreSzNTczkc9d"?>
<x:xmpmeta xmlns:x="adobe:ns:meta/" x:xmptk="Adobe XMP Core 5.6-c140 79.160451, 2017/05/06-01:08:21        ">
   <rdf:RDF xmlns:rdf="http://www.w3.org/1999/02/22-rdf-syntax-ns#">
      <rdf:Description rdf:about=""/>
   </rdf:RDF>
</x:xmpmeta>
                                                                                                    
                                                                                                    
                                                                                                    
                                                                                                    
                                                                                                    
                                                                                                    
                                                                                                    
                                                                                                    
                                                                                                    
                                                                                                    
                                                                                                    
                                                                                                    
                                                                                                    
                                                                                                    
                                                                                                    
                                                                                                    
                                                                                                    
                                                                                                    
                                                                                                    
                                                                                                    
                           
<?xpacket end="w"?></metadata>
<defs>
    <style>
      .cls-1 {
        fill: #ff4747;
        fill-rule: evenodd;
      }
    </style>
  </defs>
  <path id="形状_1" data-name="形状 1" class="cls-1" d="M-181,8a7.912,7.912,0,0,0,0,1c3.235,0,5,25,5,25h8l15-24V8h-10V9c5.673,0-6,16-6,16h-1s-0.35-17-3-17h-8Z"/>
  <path id="形状_2" data-name="形状 2" class="cls-1" d="M-137,14l11,11,11-11h-22Z"/>
  <path id="矩形_1" data-name="矩形 1" class="cls-1" d="M-72-4.385L-53.615,14-72,32.385-90.385,14Zm0,5.657L-59.272,14-72,26.728-84.728,14Zm-2.828-2.828L-72,1.272-87.556,16.828-90.385,14ZM-84.728,14L-72,26.728l-2.828,2.828L-87.556,16.828ZM-72-4.385l2.828,2.828L-72,1.272l-2.828-2.828Zm0,31.113,2.828,2.828L-72,32.385l-2.828-2.828Z"/>
  <path id="椭圆_1" data-name="椭圆 1" class="cls-1" d="M15,0A15,15,0,0,1,30,15c0,5.116-5.972,16.062-15,23C5.854,31.089,0,20.039,0,15A15,15,0,0,1,15,0Zm0,7a6.265,6.265,0,0,1,6,6.5A6.265,6.265,0,0,1,15,20a6.265,6.265,0,0,1-6-6.5A6.265,6.265,0,0,1,15,7Z"/>
  <path id="形状_3_拷贝" data-name="形状 3 拷贝" class="cls-1" d="M62,3c-3.084,0-9,5.018-9,11s5,10,5,10v1S44,31.1,44,35s4,4,4,4H62V3Zm0,0c3.084,0,9,5.018,9,11s-5,10-5,10v1s14,6.1,14,10-4,4-4,4H62V3Z"/>
  <path id="椭圆_2" data-name="椭圆 2" class="cls-1" d="M-159.5,56A16.5,16.5,0,0,1-143,72.5,16.5,16.5,0,0,1-159.5,89,16.5,16.5,0,0,1-176,72.5,16.5,16.5,0,0,1-159.5,56ZM-163,72h12l1,2.053L-151,76h-11a6.032,6.032,0,0,1-1-1.135V72Zm0-8,2.009-1L-159,64v8h-4V64Z"/>
  <path id="椭圆_3" data-name="椭圆 3" class="cls-1" d="M-110.5,59A22.5,22.5,0,0,1-88,81.5,22.5,22.5,0,0,1-110.5,104,22.5,22.5,0,0,1-133,81.5,22.5,22.5,0,0,1-110.5,59Zm0,5A17.5,17.5,0,0,1-93,81.5,17.5,17.5,0,0,1-110.5,99,17.5,17.5,0,0,1-128,81.5,17.5,17.5,0,0,1-110.5,64Z"/>
</svg>
