<svg xmlns="http://www.w3.org/2000/svg" width="18" height="31" viewBox="0 0 18 31">
  <metadata><?xpacket begin="﻿" id="W5M0MpCehiHzreSzNTczkc9d"?>
<x:xmpmeta xmlns:x="adobe:ns:meta/" x:xmptk="Adobe XMP Core 5.6-c140 79.160451, 2017/05/06-01:08:21        ">
   <rdf:RDF xmlns:rdf="http://www.w3.org/1999/02/22-rdf-syntax-ns#">
      <rdf:Description rdf:about=""/>
   </rdf:RDF>
</x:xmpmeta>
                                                                                                    
                                                                                                    
                                                                                                    
                                                                                                    
                                                                                                    
                                                                                                    
                                                                                                    
                                                                                                    
                                                                                                    
                                                                                                    
                                                                                                    
                                                                                                    
                                                                                                    
                                                                                                    
                                                                                                    
                                                                                                    
                                                                                                    
                                                                                                    
                                                                                                    
                                                                                                    
                           
<?xpacket end="w"?></metadata>
<defs>
    <style>
      .cls-1 {
        fill: #ff4747;
        fill-rule: evenodd;
      }
    </style>
  </defs>
  <path id="形状_1" data-name="形状 1" class="cls-1" d="M-109,9a7.912,7.912,0,0,0,0,1c3.235,0,5,25,5,25h8l15-24V9H-91v1c5.673,0-6,16-6,16h-1s-0.35-17-3-17h-8Z"/>
  <path id="形状_2" data-name="形状 2" class="cls-1" d="M-65,15l11,11,11-11H-65Z"/>
  <path id="矩形_1" data-name="矩形 1" class="cls-1" d="M0-3.385L18.385,15,0,33.385-18.385,15ZM0,2.272L12.728,15,0,27.728-12.728,15ZM-2.828-.556L0,2.272-15.556,17.828-18.385,15ZM-12.728,15L0,27.728l-2.828,2.828L-15.556,17.828ZM0-3.385L2.828-.556,0,2.272-2.828-.556ZM0,27.728l2.828,2.828L0,33.385l-2.828-2.828Z"/>
  <path id="椭圆_1" data-name="椭圆 1" class="cls-1" d="M87,1a15,15,0,0,1,15,15c0,5.116-5.972,16.062-15,23-9.146-6.911-15-17.961-15-23A15,15,0,0,1,87,1Zm0,7a6.265,6.265,0,0,1,6,6.5,6.019,6.019,0,1,1-12,0A6.265,6.265,0,0,1,87,8Z"/>
  <path id="形状_3_拷贝" data-name="形状 3 拷贝" class="cls-1" d="M134,4c-3.084,0-9,5.018-9,11s5,10,5,10v1s-14,6.1-14,10,4,4,4,4h14V4Zm0,0c3.084,0,9,5.018,9,11s-5,10-5,10v1s14,6.1,14,10-4,4-4,4H134V4Z"/>
  <path id="椭圆_2" data-name="椭圆 2" class="cls-1" d="M-87.5,57A16.5,16.5,0,0,1-71,73.5,16.5,16.5,0,0,1-87.5,90,16.5,16.5,0,0,1-104,73.5,16.5,16.5,0,0,1-87.5,57ZM-91,73h12l1,2.053L-79,77H-90a6.043,6.043,0,0,1-1-1.135V73Zm0-8,2.009-1L-87,65v8h-4V65Z"/>
  <path id="椭圆_3" data-name="椭圆 3" class="cls-1" d="M-38.5,60A22.5,22.5,0,0,1-16,82.5,22.5,22.5,0,0,1-38.5,105,22.5,22.5,0,0,1-61,82.5,22.5,22.5,0,0,1-38.5,60Zm0,5A17.5,17.5,0,0,1-21,82.5,17.5,17.5,0,0,1-38.5,100,17.5,17.5,0,0,1-56,82.5,17.5,17.5,0,0,1-38.5,65Z"/>
</svg>
