<svg xmlns="http://www.w3.org/2000/svg" width="36" height="36" viewBox="0 0 36 36">
  <metadata><?xpacket begin="﻿" id="W5M0MpCehiHzreSzNTczkc9d"?>
<x:xmpmeta xmlns:x="adobe:ns:meta/" x:xmptk="Adobe XMP Core 5.6-c140 79.160451, 2017/05/06-01:08:21        ">
   <rdf:RDF xmlns:rdf="http://www.w3.org/1999/02/22-rdf-syntax-ns#">
      <rdf:Description rdf:about=""/>
   </rdf:RDF>
</x:xmpmeta>
                                                                                                    
                                                                                                    
                                                                                                    
                                                                                                    
                                                                                                    
                                                                                                    
                                                                                                    
                                                                                                    
                                                                                                    
                                                                                                    
                                                                                                    
                                                                                                    
                                                                                                    
                                                                                                    
                                                                                                    
                                                                                                    
                                                                                                    
                                                                                                    
                                                                                                    
                                                                                                    
                           
<?xpacket end="w"?></metadata>
<defs>
    <style>
      .cls-1 {
        fill: #ff4747;
        fill-rule: evenodd;
      }
    </style>
  </defs>
  <path id="形状_1" data-name="形状 1" class="cls-1" d="M-225,5a7.912,7.912,0,0,0,0,1c3.235,0,5,25,5,25h8l15-24V5h-10V6c5.673,0-6,16-6,16h-1s-0.35-17-3-17h-8Z"/>
  <path id="形状_2" data-name="形状 2" class="cls-1" d="M-144,26l11-11L-144,4V26Z"/>
  <path id="椭圆_4" data-name="椭圆 4" class="cls-1" d="M-93.5,59A22.5,22.5,0,0,1-71,81.5,22.5,22.5,0,0,1-93.5,104,22.5,22.5,0,0,1-116,81.5,22.5,22.5,0,0,1-93.5,59Zm-12.449,19.116s5.666,5.872,9.284,9.652c0.246,0.257,16.488-16.491,16.722-16.246,1.951,2.037,2.442,2.6,2.442,2.6L-96.389,92.884l-12.449-12Z"/>
  <path id="矩形_2" data-name="矩形 2" class="cls-1" d="M-221.971,108.2l38.77,38.77-2.828,2.828-38.77-38.77Z"/>
  <path id="矩形_2_拷贝_3" data-name="矩形 2 拷贝 3" class="cls-1" d="M-221.971,108.2l38.77,38.77-2.828,2.828-38.77-38.77Zm36.1-.187-18.118,18.118,2.854,2.854,18.118-18.118Zm-21,21-18.118,18.118,2.854,2.854,18.118-18.118Z"/>
  <path id="矩形_1" data-name="矩形 1" class="cls-1" d="M-116-7.385L-97.615,11-116,29.385-134.385,11Zm0,5.657L-103.272,11-116,23.728-128.728,11Zm-2.828-2.828L-116-1.728l-15.556,15.556L-134.385,11ZM-128.728,11L-116,23.728l-2.828,2.828-12.728-12.728ZM-116-7.385l2.828,2.828L-116-1.728l-2.828-2.828Zm0,31.113,2.828,2.828L-116,29.385l-2.828-2.828Z"/>
  <path id="椭圆_1" data-name="椭圆 1" class="cls-1" d="M-29-3A15,15,0,0,1-14,12c0,5.116-5.972,16.062-15,23-9.146-6.911-15-17.961-15-23A15,15,0,0,1-29-3Zm0,7a6.265,6.265,0,0,1,6,6.5A6.265,6.265,0,0,1-29,17a6.265,6.265,0,0,1-6-6.5A6.265,6.265,0,0,1-29,4Z"/>
  <path id="形状_3_拷贝" data-name="形状 3 拷贝" class="cls-1" d="M18,0C13.1,0,9,4.168,9,11a11.7,11.7,0,0,0,5,10v1S0,27.2,0,32c0,4.443,4,4,4,4H18V0Zm0,0c5.031,0,9,4.043,9,11a11.673,11.673,0,0,1-5,10v1s14,5.132,14,10c0.038,4.554-4,4-4,4H18V0Z"/>
  <path id="椭圆_2" data-name="椭圆 2" class="cls-1" d="M-203.5,53A16.5,16.5,0,0,1-187,69.5,16.5,16.5,0,0,1-203.5,86,16.5,16.5,0,0,1-220,69.5,16.5,16.5,0,0,1-203.5,53ZM-207,69h12l1,2.053L-195,73h-11a6.032,6.032,0,0,1-1-1.135V69Zm0-8,2.009-1L-203,61v8h-4V61Z"/>
  <path id="椭圆_3" data-name="椭圆 3" class="cls-1" d="M-154.5,56A22.5,22.5,0,0,1-132,78.5,22.5,22.5,0,0,1-154.5,101,22.5,22.5,0,0,1-177,78.5,22.5,22.5,0,0,1-154.5,56Zm0,5A17.5,17.5,0,0,1-137,78.5,17.5,17.5,0,0,1-154.5,96,17.5,17.5,0,0,1-172,78.5,17.5,17.5,0,0,1-154.5,61Z"/>
</svg>
