<svg xmlns="http://www.w3.org/2000/svg" width="33" height="33" viewBox="0 0 33 33">
  <metadata><?xpacket begin="﻿" id="W5M0MpCehiHzreSzNTczkc9d"?>
<x:xmpmeta xmlns:x="adobe:ns:meta/" x:xmptk="Adobe XMP Core 5.6-c140 79.160451, 2017/05/06-01:08:21        ">
   <rdf:RDF xmlns:rdf="http://www.w3.org/1999/02/22-rdf-syntax-ns#">
      <rdf:Description rdf:about=""/>
   </rdf:RDF>
</x:xmpmeta>
                                                                                                    
                                                                                                    
                                                                                                    
                                                                                                    
                                                                                                    
                                                                                                    
                                                                                                    
                                                                                                    
                                                                                                    
                                                                                                    
                                                                                                    
                                                                                                    
                                                                                                    
                                                                                                    
                                                                                                    
                                                                                                    
                                                                                                    
                                                                                                    
                                                                                                    
                                                                                                    
                           
<?xpacket end="w"?></metadata>
<defs>
    <style>
      .cls-1 {
        fill: #ff4747;
        fill-rule: evenodd;
      }
    </style>
  </defs>
  <path id="形状_1" data-name="形状 1" class="cls-1" d="M-5-48a7.83,7.83,0,0,0,0,1c3.235,0,5,25,5,25H8L23-46v-2H13v1c5.673,0-6,16-6,16H6S5.65-48,3-48H-5Z"/>
  <path id="形状_2" data-name="形状 2" class="cls-1" d="M39-42L50-31,61-42H39Z"/>
  <path id="矩形_1" data-name="矩形 1" class="cls-1" d="M104-60.385L122.385-42,104-23.615,85.615-42Zm0,5.657L116.728-42,104-29.272,91.272-42Zm-2.828-2.828L104-54.728,88.444-39.172,85.615-42ZM91.272-42L104-29.272l-2.828,2.828L88.444-39.172ZM104-60.385l2.828,2.828L104-54.728l-2.828-2.828Zm0,31.113,2.828,2.828L104-23.615l-2.828-2.828Z"/>
  <path id="椭圆_1" data-name="椭圆 1" class="cls-1" d="M191-56a15,15,0,0,1,15,15c0,5.116-5.972,16.062-15,23-9.146-6.911-15-17.961-15-23A15,15,0,0,1,191-56Zm0,7a6.265,6.265,0,0,1,6,6.5,6.265,6.265,0,0,1-6,6.5,6.265,6.265,0,0,1-6-6.5A6.265,6.265,0,0,1,191-49Z"/>
  <path id="形状_3_拷贝" data-name="形状 3 拷贝" class="cls-1" d="M238-53c-3.084,0-9,5.017-9,11s5,10,5,10v1s-14,6.1-14,10,4,4,4,4h14V-53Zm0,0c3.084,0,9,5.017,9,11s-5,10-5,10v1s14,6.1,14,10-4,4-4,4H238V-53Z"/>
  <path id="椭圆_2" data-name="椭圆 2" class="cls-1" d="M16.5,0A16.5,16.5,0,1,1,0,16.5,16.5,16.5,0,0,1,16.5,0ZM13,16H25l1,2.053L25,20H14a6.043,6.043,0,0,1-1-1.135V16Zm0-8,2.009-1L17,8v8H13V8Z"/>
  <path id="椭圆_3" data-name="椭圆 3" class="cls-1" d="M65.5,3A22.5,22.5,0,1,1,43,25.5,22.5,22.5,0,0,1,65.5,3Zm0,5A17.5,17.5,0,1,1,48,25.5,17.5,17.5,0,0,1,65.5,8Z"/>
</svg>
