<svg xmlns="http://www.w3.org/2000/svg" width="28" height="26" viewBox="0 0 28 26">
  <metadata><?xpacket begin="﻿" id="W5M0MpCehiHzreSzNTczkc9d"?>
<x:xmpmeta xmlns:x="adobe:ns:meta/" x:xmptk="Adobe XMP Core 5.6-c140 79.160451, 2017/05/06-01:08:21        ">
   <rdf:RDF xmlns:rdf="http://www.w3.org/1999/02/22-rdf-syntax-ns#">
      <rdf:Description rdf:about=""/>
   </rdf:RDF>
</x:xmpmeta>
                                                                                                    
                                                                                                    
                                                                                                    
                                                                                                    
                                                                                                    
                                                                                                    
                                                                                                    
                                                                                                    
                                                                                                    
                                                                                                    
                                                                                                    
                                                                                                    
                                                                                                    
                                                                                                    
                                                                                                    
                                                                                                    
                                                                                                    
                                                                                                    
                                                                                                    
                                                                                                    
                           
<?xpacket end="w"?></metadata>
<defs>
    <style>
      .cls-1 {
        fill: #ff4747;
        fill-rule: evenodd;
      }
    </style>
  </defs>
  <path id="形状_1" data-name="形状 1" class="cls-1" d="M0,0A7.83,7.83,0,0,0,0,1C3.235,1,5,26,5,26h8L28,2V0H18V1c5.673,0-6,16-6,16H11S10.65,0,8,0H0Z"/>
  <path id="形状_2" data-name="形状 2" class="cls-1" d="M44,6L55,17,66,6H44Z"/>
  <path id="矩形_1" data-name="矩形 1" class="cls-1" d="M109-12.385L127.385,6,109,24.385,90.615,6Zm0,5.657L121.728,6,109,18.728,96.272,6Zm-2.828-2.828L109-6.728,93.444,8.828,90.615,6ZM96.272,6L109,18.728l-2.828,2.828L93.444,8.828ZM109-12.385l2.828,2.828L109-6.728l-2.828-2.828Zm0,31.113,2.828,2.828L109,24.385l-2.828-2.828Z"/>
  <path id="椭圆_1" data-name="椭圆 1" class="cls-1" d="M196-8A15,15,0,0,1,211,7c0,5.116-5.972,16.062-15,23-9.146-6.911-15-17.961-15-23A15,15,0,0,1,196-8Zm0,7a6.265,6.265,0,0,1,6,6.5,6.019,6.019,0,1,1-12,0A6.265,6.265,0,0,1,196-1Z"/>
  <path id="形状_3_拷贝" data-name="形状 3 拷贝" class="cls-1" d="M243-5c-3.084,0-9,5.018-9,11s5,10,5,10v1s-14,6.1-14,10,4,4,4,4h14V-5Zm0,0c3.084,0,9,5.018,9,11s-5,10-5,10v1s14,6.1,14,10-4,4-4,4H243V-5Z"/>
  <path id="椭圆_2" data-name="椭圆 2" class="cls-1" d="M21.5,48A16.5,16.5,0,1,1,5,64.5,16.5,16.5,0,0,1,21.5,48ZM18,64H30l1,2.053L30,68H19a6.043,6.043,0,0,1-1-1.135V64Zm0-8,2.009-1L22,56v8H18V56Z"/>
  <path id="椭圆_3" data-name="椭圆 3" class="cls-1" d="M70.5,51A22.5,22.5,0,1,1,48,73.5,22.5,22.5,0,0,1,70.5,51Zm0,5A17.5,17.5,0,1,1,53,73.5,17.5,17.5,0,0,1,70.5,56Z"/>
</svg>
