<?xml version="1.0" standalone="no"?>
<!DOCTYPE svg PUBLIC "-//W3C//DTD SVG 1.1//EN" "http://www.w3.org/Graphics/SVG/1.1/DTD/svg11.dtd" >
<svg xmlns="http://www.w3.org/2000/svg" xmlns:xlink="http://www.w3.org/1999/xlink" version="1.1">
<metadata>
Created by FontForge 20161003 at Mon Jul  1 03:43:51 2019
 By www-data
Copyright Copr.1992 Image Club Graphics, Inc.
</metadata>
<defs>
<font id="AvantGardeDemi" horiz-adv-x="786" >
  <font-face 
    font-family="AvantGardeDemi"
    font-weight="500"
    font-stretch="normal"
    units-per-em="1000"
    panose-1="0 0 0 0 0 0 0 0 0 0"
    ascent="800"
    descent="-200"
    cap-height="800"
    bbox="28 -28.1011 994 826"
    underline-thickness="16"
    underline-position="-134"
    unicode-range="U+0026-005A"
  />
<missing-glyph 
d="M735 74l-144 155l142 249l-163 -1l-80 -139l-77 85l14 9q57 33 88 80q30 48 28 113q-5 87 -65 143q-59 56 -146 58q-90 -3 -150 -66q-60 -62 -57 -152q3 -40 17 -70q13 -30 41 -60l11 -12l-26 -16q-105 -65 -124 -180q-18 -115 70 -215q84 -86 196 -83q113 3 195 106
l13 19l110 -119zM398 641q11 -34 -4 -59t-44 -42l-28 -16l-27 27q-20 21 -28 47q-7 25 7 51q21 33 63 34q41 1 61 -42v0zM414 206l-17 -29q-32 -50 -83 -59t-92 25q-43 40 -33 98q9 59 71 95l26 14z" />
    <glyph glyph-name=".notdef" unicode="&#x26;" 
d="M735 74l-144 155l142 249l-163 -1l-80 -139l-77 85l14 9q57 33 88 80q30 48 28 113q-5 87 -65 143q-59 56 -146 58q-90 -3 -150 -66q-60 -62 -57 -152q3 -40 17 -70q13 -30 41 -60l11 -12l-26 -16q-105 -65 -124 -180q-18 -115 70 -215q84 -86 196 -83q113 3 195 106
l13 19l110 -119zM398 641q11 -34 -4 -59t-44 -42l-28 -16l-27 27q-20 21 -28 47q-7 25 7 51q21 33 63 34q41 1 61 -42v0zM414 206l-17 -29q-32 -50 -83 -59t-92 25q-43 40 -33 98q9 59 71 95l26 14z" />
    <glyph glyph-name=".null" horiz-adv-x="0" 
 />
    <glyph glyph-name="nonmarkingreturn" horiz-adv-x="333" 
 />
    <glyph glyph-name="A" unicode="A" horiz-adv-x="838" 
d="M813 0l-338 800h-114l-332 -799l165 -1l87 207h283l87 -206zM506 353h-170l84 240z" />
    <glyph glyph-name="B" unicode="B" horiz-adv-x="618" 
d="M580 203q12 64 -19 133q-31 70 -99 96l-17 6l16 10q45 31 62 81q16 50 7 93q-21 93 -89 136t-169 42h-61h-149l1 -800h191h30q117 -1 195 49q77 49 101 154v0zM385 582q0 -51 -36 -71q-37 -20 -85 -19h-54v164h76q24 2 59 -12q34 -13 40 -62v0zM432 255q6 -35 -22 -72
q-29 -36 -138 -39h-61v206h92q48 0 86 -22q38 -23 43 -73v0z" />
    <glyph glyph-name="C" unicode="C" horiz-adv-x="885" 
d="M838 573l-15 27q-57 104 -153 160q-97 55 -209 56q-170 -3 -286 -118q-117 -115 -122 -300q5 -184 122 -300q116 -117 289 -121q111 1 207 58q96 58 152 163l10 18h-172l-14 -14q-38 -40 -86 -59t-100 -19q-120 4 -192 86q-71 82 -73 188q2 113 74 192q72 80 191 83
q52 0 101 -20t87 -60l18 -20h171z" />
    <glyph glyph-name="D" unicode="D" horiz-adv-x="736" 
d="M637 176q80 131 57 288t-153 260q-75 51 -161 65q-86 13 -136 11h-36h-147v-800h144h75q115 -1 208 45q92 45 149 131v0zM482 579q77 -85 70 -202q-6 -117 -119 -194q-48 -28 -92 -34q-45 -5 -102 -5h-30l1 512h39q37 2 109 -12t124 -65v0z" />
    <glyph glyph-name="E" unicode="E" horiz-adv-x="533" 
d="M496 0l-1 144h-281v184h270v144h-270v184h282l-1 144h-431v-800h432z" />
    <glyph glyph-name="F" unicode="F" horiz-adv-x="493" 
d="M464 656v144h-411v-800h150v328h246v144h-246v184h261z" />
    <glyph glyph-name="G" unicode="G" horiz-adv-x="959" 
d="M918 380l-4 30l-522 -1v-139h337l-10 -17q-33 -58 -93 -93q-60 -36 -132 -37q-120 3 -200 84q-80 80 -83 195q2 107 77 187q76 80 197 84q57 0 109 -23t91 -68l13 -16h181l-9 19q-61 112 -163 172t-222 61q-184 -6 -303 -128q-120 -123 -124 -288q6 -181 134 -300
q127 -120 302 -124q181 4 308 116q127 113 116 286v0z" />
    <glyph glyph-name="H" unicode="H" horiz-adv-x="675" 
d="M631 0v800h-149v-328h-280v328h-146v-800h146v328h280v-328h149z" />
    <glyph glyph-name="I" unicode="I" horiz-adv-x="298" 
d="M226 0v800h-147v-800h147z" />
    <glyph glyph-name="J" unicode="J" horiz-adv-x="540" 
d="M478 209v591h-151v-574q1 -25 -2 -46q-3 -22 -23 -37q-29 -21 -63 -14q-35 6 -48 44l-2 10h-151l1 -9q9 -85 67 -137q57 -51 141 -57q94 -4 161 56t70 173v0z" />
    <glyph glyph-name="K" unicode="K" horiz-adv-x="672" 
d="M642 800h-177l-251 -345v345h-148v-800h150v350l246 -350h179l-302 406z" />
    <glyph glyph-name="L" unicode="L" horiz-adv-x="510" 
d="M464 0v144h-249v656h-148l-1 -800h398z" />
    <glyph glyph-name="M" unicode="M" horiz-adv-x="942" 
d="M889 0v800h-202l-218 -611l-215 611h-203l-1 -801l152 1v593l204 -593h128l204 597v-597h151z" />
    <glyph glyph-name="N" unicode="N" horiz-adv-x="746" 
d="M696 0v800h-150v-586l-330 586h-165v-800h148v580l331 -580h166z" />
    <glyph glyph-name="O" unicode="O" horiz-adv-x="950" 
d="M895 398q-4 183 -120 300t-297 121q-179 -4 -298 -123q-119 -118 -123 -298q5 -177 123 -296q119 -118 297 -123q178 5 296 123t122 296v0zM745 398q-3 -111 -78 -188q-75 -78 -190 -81q-113 3 -190 78q-78 74 -81 191q3 113 79 190q76 78 195 81q116 -4 189 -83
q74 -79 76 -188v0z" />
    <glyph glyph-name="P" unicode="P" horiz-adv-x="608" 
d="M576 555q-1 104 -73 173t-205 72h-236v-800h148v301h96q142 5 206 83q65 78 64 171v0zM427 549q1 -47 -37 -75q-38 -27 -96 -28h-84v210h93q56 0 89 -29q33 -28 35 -78v0z" />
    <glyph glyph-name="Q" unicode="Q" horiz-adv-x="970" 
d="M910 -22v137l-15 -1q-15 -1 -28 0q-13 2 -29 6q-11 4 -19 7q-9 3 -19 9q51 61 74 122q22 61 22 140q-3 177 -123 295q-119 118 -296 125q-180 -1 -305 -114q-124 -114 -129 -303q5 -178 122 -295q118 -117 304 -126q58 -2 117 13t115 48q22 -15 41 -25t44 -19
q33 -11 61 -15q28 -5 63 -4v0zM746 401q1 -54 -9 -91q-10 -38 -55 -91q-26 27 -103 76q-76 49 -166 71q-62 12 -117 10t-100 -12l-2 14l-2 14q-3 115 81 198q84 82 205 84q114 -6 190 -84q77 -78 78 -189v0zM577 150q-40 -18 -85 -24q-45 -7 -106 14q-47 16 -80 40
q-34 24 -63 65q39 10 67 11q27 2 60 -4q51 -11 115 -43t92 -59v0z" />
    <glyph glyph-name="R" unicode="R" horiz-adv-x="620" 
d="M602 0l-216 295l32 10q84 28 130 97q45 68 45 144q0 97 -65 174q-66 76 -207 80h-261l1 -800h151v304l210 -305zM428 473q-17 -26 -46 -40t-87 -14h-85v237h112q34 -1 54 -11t34 -23q37 -36 36 -81q-2 -45 -18 -68v0z" />
    <glyph glyph-name="S" unicode="S" horiz-adv-x="607" 
d="M561 240q-11 125 -84 175q-72 50 -116 60q-70 23 -106 47q-37 24 -34 80q1 24 21 47t56 25q40 -1 63 -24q24 -23 26 -50l1 -13h153l-1 14q-10 95 -77 155q-68 60 -160 61q-92 -3 -154 -62q-63 -59 -71 -150q-4 -83 38 -144t126 -89q67 -19 116 -48q49 -30 55 -93
q0 -51 -33 -79q-33 -29 -78 -28q-41 3 -70 29q-30 26 -31 59v13h-154v-15q-1 -57 57 -138q58 -82 199 -91q114 3 186 77q72 75 72 182v0z" />
    <glyph glyph-name="T" unicode="T" horiz-adv-x="516" 
d="M480 656v144h-444v-144h146v-657l149 1v656h149z" />
    <glyph glyph-name="U" unicode="U" horiz-adv-x="645" 
d="M594 251v55v494h-148v-491l-1 -51q-3 -65 -37 -99q-35 -35 -79 -37q-55 -1 -90 34q-36 36 -37 103v31v510h-149v-510v-26q8 -150 94 -218q85 -68 179 -67q96 1 179 73q84 72 89 199v0z" />
    <glyph glyph-name="V" unicode="V" horiz-adv-x="784" 
d="M770 800h-156l-215 -606l-217 606h-153l310 -800h121z" />
    <glyph glyph-name="W" unicode="W" horiz-adv-x="1007" 
d="M994 800h-152l-139 -562l-136 562h-106l-139 -562l-141 562h-152l236 -800h115l134 529l129 -529h119z" />
    <glyph glyph-name="X" unicode="X" horiz-adv-x="787" 
d="M763 800h-175l-190 -281l-190 281h-171l274 -402l-278 -398h173l190 273l190 -273h174l-275 398z" />
    <glyph glyph-name="Y" unicode="Y" horiz-adv-x="719" 
d="M692 800h-161l-169 -369l-174 369h-160l259 -508v-292h145l1 293z" />
    <glyph glyph-name="Z" unicode="Z" horiz-adv-x="601" 
d="M546 0v144h-323l302 524v132h-463v-144h288l-304 -530v-126h500z" />
  </font>
</defs>
</svg>
