<?xml version="1.0" standalone="no"?><!DOCTYPE svg PUBLIC "-//W3C//DTD SVG 1.1//EN" "http://www.w3.org/Graphics/SVG/1.1/DTD/svg11.dtd"><svg class="icon" width="200px" height="200.00px" viewBox="0 0 1024 1024" version="1.1" xmlns="http://www.w3.org/2000/svg"><path d="M701.6 196.53m-15 0a15 15 0 1 0 30 0 15 15 0 1 0-30 0Z" fill="#E159D3" /><path d="M956.29 310.21a482.39 482.39 0 1 0-847.9 452v120.36c0 71.4 58.42 130.76 129.82 130.1a127.79 127.79 0 0 0 100.44-49.85 120.4 120.4 0 0 0 21-103.43c-5.58-21.49-11.71-59-11.71-71.71S354 737.47 359.62 716a120.4 120.4 0 0 0-21-103.43 128.55 128.55 0 0 0-209.75 9.13c-20.91-64.82-25.25-135-11.25-205.6 28.7-144.71 172.14-286.19 317.16-313.27C690.37 55.1 914.24 250.88 914.24 498a402.4 402.4 0 0 1-19.36 123.71 128.55 128.55 0 0 0-209.74-9.13 120.4 120.4 0 0 0-21 103.43c5.58 21.49 11.71 59 11.71 71.71s-6.13 50.22-11.71 71.71a120.4 120.4 0 0 0 21 103.43 127.8 127.8 0 0 0 101.67 49.85 128.59 128.59 0 0 0 128.58-128.62V762.25a483 483 0 0 0 40.9-452z m-767.9 381.87c0-26.24 20.49-48.33 46.71-49.34a48.41 48.41 0 0 1 40.41 18.85 39.94 39.94 0 0 1 6.78 34.34c-5.84 22.48-14.29 68.12-14.29 91.85s8.45 69.37 14.29 91.85a39.94 39.94 0 0 1-6.78 34.37A48.38 48.38 0 0 1 237 932.86a48.64 48.64 0 0 1-48.64-48.64z m647 191.4c0 26.24-20.49 48.33-46.71 49.34a48.41 48.41 0 0 1-40.4-18.82 39.94 39.94 0 0 1-6.78-34.34c5.84-22.48 14.29-68.12 14.29-91.85s-8.45-69.37-14.29-91.85a39.94 39.94 0 0 1 6.78-34.34 48.41 48.41 0 0 1 40.41-18.85c26.22 1 46.71 23.1 46.71 49.34z" fill="#E159D3" /><path d="M651.51 154.09a371.39 371.39 0 0 0-419.35 100.28 373.69 373.69 0 0 0-30.07 39.56 15 15 0 1 0 25 16.52A341.48 341.48 0 0 1 512 157a339.17 339.17 0 0 1 128.23 24.93 15 15 0 1 0 11.29-27.79z" fill="#E159D3" /><path d="M456.91 668.17c-20.66 1.25-37.52 19.95-37.52 40.65v157.92c0 20.7 16.85 39.4 37.52 40.65a40 40 0 0 0 42.48-39.93V708.1a40 40 0 0 0-42.48-39.93zM563.91 698.12c-20.66 1.25-37.52 19.95-37.52 40.65v98c0 20.7 16.85 39.4 37.52 40.65a40 40 0 0 0 42.48-39.93V738a40 40 0 0 0-42.48-39.88z" fill="#48BCFF" /></svg>