<?xml version="1.0" standalone="no"?><!DOCTYPE svg PUBLIC "-//W3C//DTD SVG 1.1//EN" "http://www.w3.org/Graphics/SVG/1.1/DTD/svg11.dtd"><svg class="icon" width="200px" height="200.00px" viewBox="0 0 1024 1024" version="1.1" xmlns="http://www.w3.org/2000/svg"><path fill="#333333" d="M819.008 287.744l-0.704-116.032-324.8 82.24-2.304 0.448a26.56 26.56 0 0 1-19.968-5.312 25.856 25.856 0 0 1-6.528-32.064 26.432 26.432 0 0 1 14.016-12.032c118.016-35.776 239.104-60.608 358.72-90.88 2.304-0.512 2.24-0.512 4.544-0.768 2.304 0 2.304-0.064 4.672 0.128a25.6 25.6 0 0 1 22.528 22.976c9.792 190.464 2.496 381.44 3.648 572.16a125.632 125.632 0 0 1-37.056 90.88 127.488 127.488 0 0 1-37.312 25.856 127.36 127.36 0 0 1-98.368 2.368 126.976 126.976 0 0 1-78.08-95.296 124.608 124.608 0 0 1-0.96-38.4 127.552 127.552 0 0 1 65.088-95.04c16.64-9.024 34.944-13.888 53.824-15.104 3.2-0.128 6.464-0.192 9.728-0.128a124.16 124.16 0 0 1 71.296 24.384l-1.664-265.92c-136.384 43.712-275.648 78.4-413.504 117.44-0.448 107.904-3.392 215.872-3.392 323.776a125.568 125.568 0 0 1-39.232 92.352 127.232 127.232 0 0 1-37.952 24.96 127.552 127.552 0 0 1-98.432 0 126.208 126.208 0 0 1-75.712-135.68 127.36 127.36 0 0 1 64.64-91.904c16.64-9.024 34.944-13.952 53.824-15.104 3.2-0.128 6.464-0.192 9.728-0.128a128.128 128.128 0 0 1 68.992 22.656c-2.048-141.12 2.944-282.368 2.944-423.488a35.2 35.2 0 0 1 0.896-6.848 26.112 26.112 0 0 1 12.544-15.744 29.504 29.504 0 0 1 8.704-2.816 41.6 41.6 0 0 1 6.912 0 25.792 25.792 0 0 1 22.016 23.104c2.24 50.048 3.264 100.096 3.52 150.208 136.32-43.584 275.456-78.208 413.184-117.248z m-468.032 489.984a75.84 75.84 0 0 0-34.432-56.832 76.608 76.608 0 0 0-42.496-11.776 76.8 76.8 0 0 0-30.592 7.36 75.84 75.84 0 0 0-42.24 75.52 75.968 75.968 0 0 0 20.416 44.16 74.432 74.432 0 0 0 50.496 23.232 75.2 75.2 0 0 0 78.848-81.664z m470.656-68.352a75.84 75.84 0 0 0-34.688-62.656 76.608 76.608 0 0 0-42.496-11.776 74.624 74.624 0 0 0-52.416 23.296 75.264 75.264 0 0 0-18.432 70.656c5.44 21.248 20.48 39.488 40.256 49.024a75.648 75.648 0 0 0 58.432 2.816 75.2 75.2 0 0 0 49.344-70.848v-0.512z"  /></svg>