<svg xmlns="http://www.w3.org/2000/svg" viewBox="0 0 69.79 69.79"><defs><style>.cls-1{fill:#333;}</style></defs><title>资源 41</title><g id="图层_2" data-name="图层 2"><g id="图层_2-2" data-name="图层 2"><path id="_复合路径_" data-name="&lt;复合路径&gt;" class="cls-1" d="M34.89,0a34.9,34.9,0,1,0,34.9,34.89A34.93,34.93,0,0,0,34.89,0Zm0,66.52A31.63,31.63,0,1,1,66.52,34.89,31.66,31.66,0,0,1,34.89,66.52Zm-2-23.77V18.32a1.65,1.65,0,0,1,3.29,0V42.75a1.65,1.65,0,0,1-3.29,0Zm1.85,5.83a2.67,2.67,0,1,0,2.67,2.67A2.68,2.68,0,0,0,34.79,48.58Z"/></g></g></svg>