<svg xmlns="http://www.w3.org/2000/svg" viewBox="0 0 64.76 70.15"><defs><style>.cls-1{fill:#333;}</style></defs><title>资源 36</title><g id="图层_2" data-name="图层 2"><g id="图层_2-2" data-name="图层 2"><path id="_复合路径_" data-name="&lt;复合路径&gt;" class="cls-1" d="M63.41,59.36a1.35,1.35,0,1,1,0,2.7H1.35a1.35,1.35,0,0,1,0-2.7,6.46,6.46,0,0,0,4.72-2,6.48,6.48,0,0,0,2-4.72L9.44,34.91q.86-12.31,6.33-20.24T29.68,5.56V1.35A1.19,1.19,0,0,1,31,0h2.7a1.19,1.19,0,0,1,1.35,1.35V5.56q8.43,1.18,13.91,9t6.32,20.32l1.35,17.54a6.83,6.83,0,0,0,1.94,4.89A6.39,6.39,0,0,0,63.41,59.36Zm-6.58,0A8.55,8.55,0,0,1,54,52.62L52.62,35.25q-.85-12.32-6.33-19.74T32.38,8.09q-8.43,0-13.91,7.42T12.14,35.25L10.79,52.78a8.37,8.37,0,0,1-2.86,6.58ZM32.38,70.15a11.07,11.07,0,0,1-7.59-3,1.43,1.43,0,0,1,0-2c.56-.67,1.18-.67,1.85,0a8.12,8.12,0,0,0,11.47,0q1-1,1.86,0a1.43,1.43,0,0,1,0,2A10.33,10.33,0,0,1,32.38,70.15Z"/></g></g></svg>