<svg xmlns="http://www.w3.org/2000/svg" viewBox="0 0 69.48 49.01"><defs><style>.cls-1{fill:#2c2d2d;}</style></defs><title>资源 50</title><g id="图层_2" data-name="图层 2"><g id="图层_3" data-name="图层 3"><path class="cls-1" d="M58.19,9.19H2.12A2.13,2.13,0,0,0,0,11.31V46.9A2.12,2.12,0,0,0,2.12,49H58.19A2.12,2.12,0,0,0,60.3,46.9V11.31A2.13,2.13,0,0,0,58.19,9.19Zm-1.5,36.32H3.52V12.72H56.69Z"/><path class="cls-1" d="M67.75,0H12.44a1.78,1.78,0,1,0,0,3.55H66V37.36a1.73,1.73,0,0,0,3.45,0V1.72A1.73,1.73,0,0,0,67.75,0Z"/></g></g></svg>