<svg xmlns="http://www.w3.org/2000/svg" viewBox="0 0 65.51 70.07"><defs><style>.cls-1{fill:#333;}.cls-2{fill:none;}</style></defs><title>资源 37</title><g id="图层_2" data-name="图层 2"><g id="图层_2-2" data-name="图层 2"><g id="_编组_" data-name="&lt;编组&gt;"><path id="_路径_" data-name="&lt;路径&gt;" class="cls-1" d="M8.82,58.7a1.17,1.17,0,0,0-1.63.23l-7,9.28A1.16,1.16,0,1,0,2.09,69.6l7-9.28A1.16,1.16,0,0,0,8.82,58.7Z"/><path id="_路径_2" data-name="&lt;路径&gt;" class="cls-1" d="M57.78,58.93h0a1.16,1.16,0,1,0-1.86,1.39l7,9.28a1.18,1.18,0,0,0,.93.47,1.13,1.13,0,0,0,.69-.24,1.15,1.15,0,0,0,.24-1.62Z"/><path id="_复合路径_" data-name="&lt;复合路径&gt;" class="cls-2" d="M32.49,2.78A30.17,30.17,0,1,0,62.65,32.94,30.2,30.2,0,0,0,32.49,2.78ZM43.55,46.33a1.19,1.19,0,0,1-.82.33,1.16,1.16,0,0,1-.82-.33L30.51,34.92a1.13,1.13,0,0,1-.34-.82V17.44a1.16,1.16,0,0,1,2.32,0V33.62L43.55,44.68A1.18,1.18,0,0,1,43.55,46.33Z"/><path id="_复合路径_2" data-name="&lt;复合路径&gt;" class="cls-1" d="M32.49.46A32.49,32.49,0,1,0,65,32.94,32.52,32.52,0,0,0,32.49.46Zm0,62.65A30.17,30.17,0,1,1,62.65,32.94,30.21,30.21,0,0,1,32.49,63.11Z"/><path id="_路径_3" data-name="&lt;路径&gt;" class="cls-1" d="M32.49,33.62h0V17.44a1.16,1.16,0,0,0-2.32,0V34.1a1.13,1.13,0,0,0,.34.82l11.4,11.41a1.16,1.16,0,0,0,.82.33,1.19,1.19,0,0,0,.82-.33,1.18,1.18,0,0,0,0-1.65Z"/><path id="_路径_4" data-name="&lt;路径&gt;" class="cls-1" d="M57.58,1.88a33.82,33.82,0,0,1,3,2.72,37.2,37.2,0,0,1,2.72,3c1,1.42,2.89.69,1.9-.87A42.23,42.23,0,0,0,58.82.35C57.34-.52,56.22.31,57.58,1.88Z"/><path id="_路径_5" data-name="&lt;路径&gt;" class="cls-1" d="M7.93,1.88a35.38,35.38,0,0,0-3,2.72,37.2,37.2,0,0,0-2.72,3c-1,1.42-2.88.69-1.89-.87A42.23,42.23,0,0,1,6.69.35C8.17-.52,9.29.31,7.93,1.88Z"/><path id="_路径_6" data-name="&lt;路径&gt;" class="cls-1" d="M52.54,52.31a1.73,1.73,0,0,0-.21.17c-.07.07-.12.15-.18.22a1.8,1.8,0,0,0,.2-.19Z"/></g></g></g></svg>