<svg xmlns="http://www.w3.org/2000/svg" viewBox="0 0 67.17 53.75"><defs><style>.cls-1{fill:#333;}</style></defs><title>资源 28</title><g id="图层_2" data-name="图层 2"><g id="图层_2-2" data-name="图层 2"><path id="_复合路径_" data-name="&lt;复合路径&gt;" class="cls-1" d="M67.17,37.34a16.45,16.45,0,0,0-9.82-15,1.66,1.66,0,0,0,0-.32A22,22,0,0,0,13.69,18.5a17.87,17.87,0,0,0,4.18,35.25H51.14A16.43,16.43,0,0,0,67.17,37.34ZM50.76,50.29H18.33l-.23,0-.23,0A14.41,14.41,0,1,1,32.28,35.88a1.73,1.73,0,0,0,3.46,0A17.87,17.87,0,0,0,17.87,18H17.3a18.53,18.53,0,0,1,36.61,3.2,16.41,16.41,0,0,0-3.15-.3,1.73,1.73,0,1,0,0,3.46,13,13,0,1,1,0,25.91ZM17.87,25.21A10.69,10.69,0,0,0,7.2,35.88a.58.58,0,1,0,1.15,0,9.53,9.53,0,0,1,9.52-9.51.58.58,0,0,0,0-1.16Zm-9.23,13a.58.58,0,0,0-1.12.28,11.25,11.25,0,0,0,.59,1.72.59.59,0,0,0,.53.35.59.59,0,0,0,.23-.05.57.57,0,0,0,.3-.76A9.67,9.67,0,0,1,8.64,38.21Z"/></g></g></svg>