<svg xmlns="http://www.w3.org/2000/svg" viewBox="0 0 64.89 68.89"><defs><style>.cls-1{fill:#333;}</style></defs><title>资源 38</title><g id="图层_2" data-name="图层 2"><g id="图层_2-2" data-name="图层 2"><path id="_复合路径_" data-name="&lt;复合路径&gt;" class="cls-1" d="M27,41.92a2.23,2.23,0,0,1,2.22,2.22v.6a2.22,2.22,0,1,1-4.44,0v-.6A2.22,2.22,0,0,1,27,41.92ZM16.75,24.29a1.77,1.77,0,0,0,1.88,1.49,1.69,1.69,0,0,0,1.83-1.49c-.17-4.88,2.14-7.73,6.82-7.16,3.57.43,5,1.9,5,5.45,0,1.4-1.55,3.22-3.67,5.43-2.77,2.82-4.2,5.32-4.2,7.55v2.27a1.83,1.83,0,0,0,3.55,0V36.21c0-1.88,1.32-4.1,4-6.7s4.2-4.93,4.2-7c-.22-5.88-3.27-8.93-9.2-9.15C20.13,13.31,16.75,16.93,16.75,24.29ZM49.19,0H3.72A3.79,3.79,0,0,0,0,3.72V56.57a3.79,3.79,0,0,0,3.72,3.72H34.39L52.85,33V5.38h0V3.71A3.78,3.78,0,0,0,49.19,0Zm.43,32-17,25.06h-29a.49.49,0,0,1-.4-.4V3.59a.48.48,0,0,1,.4-.4H49.29a.42.42,0,0,1,.33.22V32Zm5.05,3.32L39.26,57.74l-.1,8.7v2.45L41.43,68l8.11-3.27L64.89,42.28l-10.22-7ZM47.31,62.22l-5.06,2,.06-5.39L55.55,39.52l5,3.38L47.31,62.22Zm.43.9-6.17-4.23,1.88-2.74,6.17,4.23-1.88,2.74Z"/></g></g></svg>