<svg xmlns="http://www.w3.org/2000/svg" viewBox="0 0 70.22 59.13"><defs><style>.cls-1{fill:none;}.cls-2{fill:#333;}</style></defs><title>资源 21</title><g id="图层_2" data-name="图层 2"><g id="图层_2-2" data-name="图层 2"><g id="_编组_" data-name="&lt;编组&gt;"><path id="_路径_" data-name="&lt;路径&gt;" class="cls-1" d="M66.52,42.5h0v-37A1.84,1.84,0,0,0,64.68,3.7H5.54A1.84,1.84,0,0,0,3.7,5.54v37a1.84,1.84,0,0,0,1.84,1.85H64.68A1.85,1.85,0,0,0,66.52,42.5Z"/><path id="_路径_2" data-name="&lt;路径&gt;" class="cls-2" d="M64.68,48H33.26v7.4H20.33a1.85,1.85,0,1,0,0,3.69H49.89a1.85,1.85,0,1,0,0-3.69H37V48Z"/><path id="_复合路径_" data-name="&lt;复合路径&gt;" class="cls-2" d="M70.22,42.5v-37A5.55,5.55,0,0,0,64.68,0H5.54A5.55,5.55,0,0,0,0,5.54v37A5.55,5.55,0,0,0,5.42,48H64.8A5.55,5.55,0,0,0,70.22,42.5ZM3.7,42.5v-37A1.84,1.84,0,0,1,5.54,3.7H64.68a1.84,1.84,0,0,1,1.84,1.84v37h0a1.85,1.85,0,0,1-1.84,1.85H5.54A1.84,1.84,0,0,1,3.7,42.5Z"/></g></g></g></svg>