<svg xmlns="http://www.w3.org/2000/svg" viewBox="0 0 72.4 72.4"><defs><style>.cls-1{fill:#333;}.cls-2{fill:none;}</style></defs><title>资源 34</title><g id="图层_2" data-name="图层 2"><g id="图层_2-2" data-name="图层 2"><g id="_编组_" data-name="&lt;编组&gt;"><path id="_复合路径_" data-name="&lt;复合路径&gt;" class="cls-1" d="M36.2,0A36.2,36.2,0,1,0,72.4,36.2,36.24,36.24,0,0,0,36.2,0Zm0,70.07A33.87,33.87,0,1,1,70.07,36.2,33.92,33.92,0,0,1,36.2,70.07Z"/><path id="_路径_" data-name="&lt;路径&gt;" class="cls-1" d="M33.92,7.56a1.16,1.16,0,0,0-1.3-1c-18,2.23-24.36,19.85-24.43,20a1.17,1.17,0,0,0,.72,1.49,1.32,1.32,0,0,0,.39.06,1.15,1.15,0,0,0,1.09-.77c.06-.16,6-16.43,22.51-18.48A1.18,1.18,0,0,0,33.92,7.56Z"/><path id="_路径_2" data-name="&lt;路径&gt;" class="cls-2" d="M36.2,33.29a3.46,3.46,0,1,0,3.45,3.46A3.46,3.46,0,0,0,36.2,33.29Z"/><path id="_复合路径_2" data-name="&lt;复合路径&gt;" class="cls-1" d="M36.2,20.93a15.4,15.4,0,1,0,15.4,15.4A15.39,15.39,0,0,0,36.2,20.93Zm0,29a13.6,13.6,0,1,1,13.6-13.6A13.6,13.6,0,0,1,36.2,49.93Z"/></g></g></g></svg>