<svg xmlns="http://www.w3.org/2000/svg" viewBox="0 0 64.55 57.75"><defs><style>.cls-1{fill:#333;}</style></defs><title>资源 31</title><g id="图层_2" data-name="图层 2"><g id="图层_1-2" data-name="图层 1"><path id="_复合路径_" data-name="&lt;复合路径&gt;" class="cls-1" d="M50.46,26a1.7,1.7,0,0,0-2.4,0L34,40.06V1.7a1.7,1.7,0,1,0-3.39,0V40.06L16.49,26a1.7,1.7,0,0,0-2.4,2.4l17,17a1.69,1.69,0,0,0,1.21.5,1.66,1.66,0,0,0,1.2-.5l17-17a1.7,1.7,0,0,0,0-2.4Zm9,31.77H5.1A5.1,5.1,0,0,1,0,52.66v-6.8a1.7,1.7,0,0,1,3.4,0v6.8a1.7,1.7,0,0,0,1.7,1.7H59.45a1.7,1.7,0,0,0,1.7-1.7v-6.8a1.7,1.7,0,1,1,3.4,0v6.8A5.1,5.1,0,0,1,59.45,57.75Z"/></g></g></svg>