<svg xmlns="http://www.w3.org/2000/svg" viewBox="0 0 71.42 63.9"><defs><style>.cls-1{fill:#333;}</style></defs><title>资源 18</title><g id="图层_2" data-name="图层 2"><g id="图层_1-2" data-name="图层 1"><path id="_复合路径_" data-name="&lt;复合路径&gt;" class="cls-1" d="M35.71,63.9a1.82,1.82,0,0,1-.91-.24A102.81,102.81,0,0,1,14.61,48.32a1.88,1.88,0,1,1,2.65-2.67,102,102,0,0,0,18.45,14.2,101.81,101.81,0,0,0,18.45-14.2,1.88,1.88,0,1,1,2.64,2.67A102.9,102.9,0,0,1,36.62,63.66a1.82,1.82,0,0,1-.91.24ZM4.81,33.83A1.89,1.89,0,0,1,3.1,32.75a30.55,30.55,0,0,1-3.1-13A19.75,19.75,0,0,1,19.73,0a19,19,0,0,1,11,3.89,20.67,20.67,0,0,1,5,5.11,20.67,20.67,0,0,1,5-5.11A19,19,0,0,1,51.69,0,19.75,19.75,0,0,1,71.42,19.73a30.57,30.57,0,0,1-3.11,13,1.88,1.88,0,0,1-3.4-1.6,26.69,26.69,0,0,0,2.75-11.41,16,16,0,0,0-16-16c-6.41,0-12.62,5.27-14.2,10a1.87,1.87,0,0,1-3.56,0c-1.58-4.72-7.79-10-14.2-10a16,16,0,0,0-16,16A26.69,26.69,0,0,0,6.51,31.15a1.88,1.88,0,0,1-.91,2.5,1.86,1.86,0,0,1-.79.18Zm34.72,15h-.05c-.76,0-2.14-.41-2.83-2.88L32.07,29.7,29,42c-.6,2.42-2,2.93-2.75,3s-2.22-.1-3.34-2.33l-2.28-4.55a1.76,1.76,0,0,0-.28-.44l0,0a9.35,9.35,0,0,1-7.19,3.58H9.4a1.88,1.88,0,1,1,0-3.75h3.76a5.71,5.71,0,0,0,4.08-1.94,3.76,3.76,0,0,1,3.35-1.8A4.3,4.3,0,0,1,24,36.47l1.67,3.34,3.52-14.29c.59-2.41,1.81-2.93,2.73-2.95s2.15.47,2.82,2.86l4.83,17.2L44,29.07c.77-2.36,2.18-2.77,3-2.8s2.22.25,3.18,2.54l2.72,6.46a4.31,4.31,0,0,0,3.49,2.32H62a1.88,1.88,0,0,1,0,3.76H56.39a8,8,0,0,1-7-4.62l-2.23-5.28L42.42,46.11c-.77,2.38-2.12,2.75-2.89,2.75Z"/></g></g></svg>