<svg xmlns="http://www.w3.org/2000/svg" viewBox="0 0 71.36 63.9"><defs><style>.cls-1{fill:#333;}</style></defs><title>资源 17</title><g id="图层_2" data-name="图层 2"><g id="图层_2-2" data-name="图层 2"><path id="_复合路径_" data-name="&lt;复合路径&gt;" class="cls-1" d="M70,12.61C67.16,5,58.39-1.24,49.32.21A21.09,21.09,0,0,0,35.68,9a23.85,23.85,0,0,0-6.85-6.35A18.12,18.12,0,0,0,15.18.56,19.53,19.53,0,0,0,1.46,12.28c-2.64,6.22-1.3,13.08.83,18.66s9.53,14.59,13.26,18.32A117,117,0,0,0,32,62c3.65,2.09,3.06,2.7,6.61.42A107.61,107.61,0,0,0,54.18,50.79C59.8,46,66.67,36.36,68.58,32.09S72.91,20.18,70,12.61ZM64.87,31.17C61,38.64,56.46,43.82,50,49.47A115.53,115.53,0,0,1,35.68,59.85,106.14,106.14,0,0,1,18,46.41C11.42,40.07,7.5,34.62,5.13,27.79c-1.07-3.48-2.57-9,.21-15s10-10.23,17.09-8.71a17.33,17.33,0,0,1,10.71,8c.7,1.13.69,2.08,1.32,2.54a1.82,1.82,0,0,0,2.59-.13c.88-1,.24-2,3.79-5.81,4-3.84,8.43-5.4,13.08-4.71a16.09,16.09,0,0,1,11.43,7.61C68.26,16.29,68.59,23.34,64.87,31.17Z"/></g></g></svg>