<svg xmlns="http://www.w3.org/2000/svg" viewBox="0 0 39.75 32.51"><defs><style>.cls-1{fill:#333;}</style></defs><title>资源 43</title><g id="图层_2" data-name="图层 2"><g id="图层_1-2" data-name="图层 1"><path id="_复合路径_" data-name="&lt;复合路径&gt;" class="cls-1" d="M38.76,2.71H1c-.55,0-1-.61-1-1.36S.44,0,1,0H38.76c.55,0,1,.61,1,1.35S39.31,2.71,38.76,2.71Zm1,13.54c0,.75-.44,1.36-1,1.36H1c-.55,0-1-.61-1-1.36S.44,14.9,1,14.9H38.76C39.31,14.9,39.75,15.51,39.75,16.25Zm-1,16.26H1c-.55,0-1-.61-1-1.35S.44,29.8,1,29.8H38.76c.55,0,1,.61,1,1.36S39.31,32.51,38.76,32.51Z"/></g></g></svg>