<svg xmlns="http://www.w3.org/2000/svg" viewBox="0 0 71.32 71.32"><defs><style>.cls-1{fill:#333;}</style></defs><title>资源 19</title><g id="图层_2" data-name="图层 2"><g id="图层_2-2" data-name="图层 2"><path id="_路径_" data-name="&lt;路径&gt;" class="cls-1" d="M17.85,32.27a3.4,3.4,0,1,0,3.4,3.39A3.4,3.4,0,0,0,17.85,32.27Z"/><path id="_复合路径_" data-name="&lt;复合路径&gt;" class="cls-1" d="M35.66,0A35.66,35.66,0,1,0,71.32,35.66,35.67,35.67,0,0,0,35.66,0Zm0,68.22A32.56,32.56,0,1,1,68.22,35.66,32.56,32.56,0,0,1,35.66,68.22Z"/><path id="_路径_2" data-name="&lt;路径&gt;" class="cls-1" d="M35.83,32.27a3.4,3.4,0,1,0,3.4,3.39A3.4,3.4,0,0,0,35.83,32.27Z"/><path id="_路径_3" data-name="&lt;路径&gt;" class="cls-1" d="M52.81,32.27a3.4,3.4,0,1,0,3.4,3.39A3.39,3.39,0,0,0,52.81,32.27Z"/></g></g></svg>