<svg xmlns="http://www.w3.org/2000/svg" viewBox="0 0 51.69 62.14"><defs><style>.cls-1{fill:#333;}</style></defs><title>资源 4</title><g id="图层_2" data-name="图层 2"><g id="图层_1-2" data-name="图层 1"><path id="_复合路径_" data-name="&lt;复合路径&gt;" class="cls-1" d="M51.69,1.45V45a8.43,8.43,0,1,1-2.91-6.36V14.93l-31.94,8V53.72a8.42,8.42,0,1,1-2.9-6.36V10.16A1.46,1.46,0,0,1,15,8.75L49.88,0A1.45,1.45,0,0,1,51.64,1.1,1.41,1.41,0,0,1,51.69,1.45ZM48.78,11.93V3.31l-31.94,8v8.62ZM8.42,59.24a5.52,5.52,0,0,0,0-11h0a5.52,5.52,0,0,0,0,11Zm34.85-8.71a5.52,5.52,0,0,0,0-11h0a5.52,5.52,0,0,0,0,11Z"/></g></g></svg>