<svg xmlns="http://www.w3.org/2000/svg" viewBox="0 0 49.87 55.52"><defs><style>.cls-1{fill:#333;}</style></defs><title>资源 5</title><g id="图层_2" data-name="图层 2"><g id="图层_1-2" data-name="图层 1"><path id="_复合路径_" data-name="&lt;复合路径&gt;" class="cls-1" d="M1.12,11.11H28.55a1.12,1.12,0,1,0,0-2.24H1.12a1.12,1.12,0,1,0,0,2.24Zm0,15.35H28.55a1.12,1.12,0,0,0,0-2.24H1.12a1.12,1.12,0,1,0,0,2.24ZM13.36,39.57H1.12a1.12,1.12,0,0,0,0,2.24H13.36a1.12,1.12,0,1,0,0-2.24Zm36-39.4A1.12,1.12,0,0,0,48.26.11L36.11,6a1.12,1.12,0,0,0-.63,1V46.21c-.8,2.31-3.8,4.72-7.53,6a15.14,15.14,0,0,1-7.32.88c-1.88-.3-3.18-1.11-3.58-2.21s.11-2.56,1.37-4A15.17,15.17,0,0,1,24.65,43a16.59,16.59,0,0,1,5.52-1h.21a1.12,1.12,0,0,0,0-2.24,18.73,18.73,0,0,0-6.49,1.15,17.41,17.41,0,0,0-7.16,4.58c-1.84,2.09-2.48,4.3-1.79,6.22s2.57,3.22,5.32,3.67a12.6,12.6,0,0,0,2.16.17,18.93,18.93,0,0,0,6.28-1.15c4.51-1.61,8-4.61,9-7.65a1,1,0,0,0,0-.33V7.74l9.91-4.83V9.68l-6.75,3.86a1.12,1.12,0,0,0,1.12,2l7.31-4.19a1.11,1.11,0,0,0,.56-1V1.12A1.11,1.11,0,0,0,49.34.17Z"/></g></g></svg>