<svg xmlns="http://www.w3.org/2000/svg" viewBox="0 0 62.99 62.99"><defs><style>.cls-1{fill:#333;}.cls-2{fill:none;}</style></defs><title>资源 8</title><g id="图层_2" data-name="图层 2"><g id="图层_1-2" data-name="图层 1"><g id="_编组_" data-name="&lt;编组&gt;"><path id="_复合路径_" data-name="&lt;复合路径&gt;" class="cls-1" d="M31.5,0A31.5,31.5,0,1,0,63,31.49,31.49,31.49,0,0,0,31.5,0Zm0,60A28.5,28.5,0,1,1,60,31.49,28.5,28.5,0,0,1,31.5,60Z"/><path id="_复合路径_2" data-name="&lt;复合路径&gt;" class="cls-2" d="M31.5,5A26.54,26.54,0,1,0,58,31.5,26.54,26.54,0,0,0,31.5,5ZM28.76,47.08c-9,0-16.25-6.76-16.25-15.09s7.28-15.1,16.25-15.1S45,23.65,45,32,37.73,47.08,28.76,47.08Z"/><path id="_复合路径_3" data-name="&lt;复合路径&gt;" class="cls-2" d="M28.76,16.89c-9,0-16.25,6.76-16.25,15.1s7.28,15.09,16.25,15.09S45,40.32,45,32,37.73,16.89,28.76,16.89Zm8.63,24.43H33.46V31.5L21.67,41.32V21.67L33.46,31.5V21.67h3.93Z"/><polygon id="_路径_" data-name="&lt;路径&gt;" class="cls-1" points="33.46 29.53 33.46 31.5 33.46 41.32 37.39 41.32 37.39 21.67 33.46 21.67 33.46 29.53"/><polygon id="_路径_2" data-name="&lt;路径&gt;" class="cls-1" points="21.67 41.32 33.46 31.5 21.67 21.67 21.67 41.32"/></g></g></g></svg>