<svg xmlns="http://www.w3.org/2000/svg" viewBox="0 0 62.51 62.51"><defs><style>.cls-1{fill:#333;}</style></defs><title>资源 33</title><g id="图层_2" data-name="图层 2"><g id="图层_2-2" data-name="图层 2"><g id="_编组_" data-name="&lt;编组&gt;"><path id="_复合路径_" data-name="&lt;复合路径&gt;" class="cls-1" d="M31.25,0A31.26,31.26,0,1,0,62.51,31.25,31.25,31.25,0,0,0,31.25,0Zm0,59.53A28.28,28.28,0,1,1,59.53,31.25,28.28,28.28,0,0,1,31.25,59.53Z"/><path id="_路径_" data-name="&lt;路径&gt;" class="cls-1" d="M23.42,44.58A1.56,1.56,0,0,1,21.85,43v-22a1.57,1.57,0,0,1,3.13,0V43A1.56,1.56,0,0,1,23.42,44.58Z"/><path id="_路径_2" data-name="&lt;路径&gt;" class="cls-1" d="M39.09,44.58A1.56,1.56,0,0,1,37.52,43v-22a1.57,1.57,0,0,1,3.14,0V43A1.56,1.56,0,0,1,39.09,44.58Z"/></g></g></g></svg>