<svg xmlns="http://www.w3.org/2000/svg" viewBox="0 0 41.69 70.21"><defs><style>.cls-1{fill:#333;}</style></defs><title>资源 35</title><g id="图层_2" data-name="图层 2"><g id="图层_2-2" data-name="图层 2"><path id="_复合路径_" data-name="&lt;复合路径&gt;" class="cls-1" d="M3.29,70.21H38.4a3.29,3.29,0,0,0,3.29-3.29V3.29A3.3,3.3,0,0,0,38.4,0H3.29A3.3,3.3,0,0,0,0,3.29V66.92A3.29,3.29,0,0,0,3.29,70.21ZM2.19,3.29A1.1,1.1,0,0,1,3.29,2.2H38.4a1.09,1.09,0,0,1,1.09,1.09V66.92A1.09,1.09,0,0,1,38.4,68H3.29a1.1,1.1,0,0,1-1.1-1.1Zm3.3,56H36.2a1.09,1.09,0,0,0,1.1-1.09V12.07A1.1,1.1,0,0,0,36.2,11H5.49a1.1,1.1,0,0,0-1.1,1.1V58.15A1.09,1.09,0,0,0,5.49,59.24ZM6.58,13.17H35.11V57.05H6.58ZM19.75,63.63a2.2,2.2,0,1,0,2.19-2.19A2.2,2.2,0,0,0,19.75,63.63ZM16.46,8.78h8.77a1.1,1.1,0,0,0,0-2.2H16.46a1.1,1.1,0,0,0,0,2.2Z"/></g></g></svg>