<svg xmlns="http://www.w3.org/2000/svg" viewBox="0 0 71.08 48.63"><defs><style>.cls-1{fill:#333;}.cls-2{fill:none;}</style></defs><title>资源 22</title><g id="图层_2" data-name="图层 2"><g id="图层_2-2" data-name="图层 2"><g id="_编组_" data-name="&lt;编组&gt;"><path id="_复合路径_" data-name="&lt;复合路径&gt;" class="cls-1" d="M71.08,43V5.61A5.62,5.62,0,0,0,65.47,0H5.61A5.62,5.62,0,0,0,0,5.61V43a5.62,5.62,0,0,0,5.49,5.61h60.1A5.62,5.62,0,0,0,71.08,43ZM3.74,43V5.61A1.87,1.87,0,0,1,5.61,3.74H65.47a1.87,1.87,0,0,1,1.87,1.87V43h0a1.87,1.87,0,0,1-1.87,1.87H5.61A1.87,1.87,0,0,1,3.74,43Z"/><polygon id="_路径_" data-name="&lt;路径&gt;" class="cls-2" points="27.04 13.5 27.04 35.13 44.04 24.31 27.04 13.5"/><path id="_复合路径_2" data-name="&lt;复合路径&gt;" class="cls-1" d="M26.1,37.4a4.11,4.11,0,0,0,4.15-.13l15-9.52a4.08,4.08,0,0,0,0-6.88l-15-9.51a4,4,0,0,0-2.19-.64h0A4.06,4.06,0,0,0,24,14.8v19A4.08,4.08,0,0,0,26.1,37.4Zm2-22.6,15,9.51L28.06,33.83Z"/></g></g></g></svg>