<svg xmlns="http://www.w3.org/2000/svg" viewBox="0 0 62.51 62.51"><defs><style>.cls-1{fill:none;}.cls-2{fill:#333;}</style></defs><title>资源 7</title><g id="图层_2" data-name="图层 2"><g id="图层_1-2" data-name="图层 1"><path id="_复合路径_" data-name="&lt;复合路径&gt;" class="cls-1" d="M31.25,3A28.28,28.28,0,1,0,59.53,31.25,28.27,28.27,0,0,0,31.25,3ZM33,50.37c-9.08,0-16.44-8.53-16.44-19s7.36-19,16.44-19S49.48,20.8,49.48,31.32,42.12,50.37,33,50.37Z"/><path id="_复合路径_2" data-name="&lt;复合路径&gt;" class="cls-2" d="M31.25,0A31.26,31.26,0,1,0,62.51,31.25,31.25,31.25,0,0,0,31.25,0Zm0,59.53A28.28,28.28,0,1,1,59.53,31.25,28.28,28.28,0,0,1,31.25,59.53Z"/><path id="_复合路径_3" data-name="&lt;复合路径&gt;" class="cls-1" d="M33,12.27c-9.08,0-16.44,8.53-16.44,19.05s7.36,19,16.44,19,16.45-8.53,16.45-19S42.12,12.27,33,12.27ZM44.45,32a1.5,1.5,0,0,1-.55.54L26,42.85a1.49,1.49,0,0,1-2-.54,1.5,1.5,0,0,1-.2-.75V20.94a1.49,1.49,0,0,1,1.49-1.49,1.47,1.47,0,0,1,.74.2L43.9,30A1.49,1.49,0,0,1,44.45,32Z"/><path id="_路径_" data-name="&lt;路径&gt;" class="cls-2" d="M25.3,19.45a1.49,1.49,0,0,0-1.49,1.49V41.56a1.5,1.5,0,0,0,.2.75,1.49,1.49,0,0,0,2,.54L43.9,32.54a1.48,1.48,0,0,0,0-2.58L26,19.65A1.47,1.47,0,0,0,25.3,19.45Z"/></g></g></svg>