<svg xmlns="http://www.w3.org/2000/svg" viewBox="0 0 61.91 61.91"><defs><style>.cls-1{fill:#333;}.cls-2{fill:none;}</style></defs><title>资源 6</title><g id="图层_2" data-name="图层 2"><g id="图层_1-2" data-name="图层 1"><g id="_编组_" data-name="&lt;编组&gt;"><path id="_复合路径_" data-name="&lt;复合路径&gt;" class="cls-1" d="M31,0a31,31,0,1,0,31,31A31,31,0,0,0,31,0Zm0,59A28,28,0,1,1,59,31,28,28,0,0,1,31,59Z"/><path id="_复合路径_2" data-name="&lt;复合路径&gt;" class="cls-2" d="M31,4.77A26.13,26.13,0,1,0,57.08,30.9,26.12,26.12,0,0,0,31,4.77ZM29,47.55c-10.06,0-18.22-7.68-18.22-17.14S19,13.27,29,13.27s18.23,7.67,18.23,17.14S39.11,47.55,29,47.55Z"/><path id="_复合路径_3" data-name="&lt;复合路径&gt;" class="cls-2" d="M29,13.27c-10.06,0-18.22,7.67-18.22,17.14S19,47.55,29,47.55s18.23-7.68,18.23-17.14S39.11,13.27,29,13.27Zm7.72,27.31L25.15,30.9v9.68H21.28V21.22h3.87V30.9l11.61-9.68Z"/><polygon id="_路径_" data-name="&lt;路径&gt;" class="cls-1" points="36.76 40.58 36.76 21.22 25.15 30.9 36.76 40.58"/><polygon id="_路径_2" data-name="&lt;路径&gt;" class="cls-1" points="25.15 21.22 21.28 21.22 21.28 40.58 25.15 40.58 25.15 30.9 25.15 28.96 25.15 21.22"/></g></g></g></svg>