<svg xmlns="http://www.w3.org/2000/svg" viewBox="0 0 63.69 64.03"><defs><style>.cls-1{fill:#333;}</style></defs><title>资源 25</title><g id="图层_2" data-name="图层 2"><g id="图层_1-2" data-name="图层 1"><path id="_复合路径_" data-name="&lt;复合路径&gt;" class="cls-1" d="M3.16,24.28A29.9,29.9,0,0,1,39.75,3.16c7.92,2.12,14.8,8.05,18.76,16.07L52.45,17.6l-.55,2.07,8.24,2.21a1.33,1.33,0,0,0,.28,0,1.14,1.14,0,0,0,.54-.14,1.1,1.1,0,0,0,.49-.65l2.21-8.25-2.06-.55-1.45,5.41C55.87,9.45,48.63,3.32,40.3,1.09A32,32,0,0,0,0,32H2.13A30.29,30.29,0,0,1,3.16,24.28ZM61.56,32A29.92,29.92,0,0,1,23.94,60.87C16,58.75,9.15,52.81,5.19,44.8l6.05,1.62.56-2.06L3.55,42.15a1.06,1.06,0,0,0-1.3.76L0,51.15l2.06.55,1.45-5.41C7.82,54.58,15.07,60.7,23.39,62.93A32,32,0,0,0,63.69,32Z"/></g></g></svg>