<svg xmlns="http://www.w3.org/2000/svg" viewBox="0 0 70.08 55.71"><defs><style>.cls-1{fill:#333;}</style></defs><title>资源 20</title><g id="图层_2" data-name="图层 2"><g id="图层_1-2" data-name="图层 1"><path id="_复合路径_" data-name="&lt;复合路径&gt;" class="cls-1" d="M48,55.71H22.08a5.43,5.43,0,0,1-5.43-5.43V30.89l-2.6,2.71a2.25,2.25,0,0,1-1.62.69,2.21,2.21,0,0,1-1.63-.69L.63,23a2.26,2.26,0,0,1,0-3.13L18.89.85A2.25,2.25,0,0,1,20.64,0h6a2.26,2.26,0,0,1,2.25,2.26c0,2.68,3.4,5.06,6.07,5.06s6.06-2.38,6.06-5.06A2.26,2.26,0,0,1,43.32,0h6.06A2.27,2.27,0,0,1,51.2.92l18.25,19a2.26,2.26,0,0,1,0,3.13L59.29,33.65a2.27,2.27,0,0,1-3.25,0l-2.65-2.75V50.29A5.43,5.43,0,0,1,48,55.71ZM18.91,23a2.33,2.33,0,0,1,.85.16,2.28,2.28,0,0,1,1.41,2.1v25a.91.91,0,0,0,.91.91H48a.9.9,0,0,0,.9-.91v-25a2.26,2.26,0,0,1,3.89-1.57l4.9,5.09,7-7.33L48.4,4.51H45.26C44,8.83,39.28,11.83,35,11.83s-9-3-10.26-7.32h-3.1L5.39,21.44l7,7.33,4.85-5.05a2.31,2.31,0,0,1,1.64-.7Z"/></g></g></svg>