<svg xmlns="http://www.w3.org/2000/svg" viewBox="0 0 66.79 67.07"><defs><style>.cls-1{fill:#2c2d2d;}</style></defs><title>资源 51</title><g id="图层_2" data-name="图层 2"><g id="图层_3" data-name="图层 3"><path class="cls-1" d="M65.16,26.83H42.1L64.75,4.17a1.63,1.63,0,0,0-2.31-2.31L40,24.34V1.63a1.64,1.64,0,0,0-3.27,0V28.46a1.65,1.65,0,0,0,1.64,1.64H65.16a1.64,1.64,0,0,0,0-3.27Z"/><path class="cls-1" d="M28.46,37H1.63a1.64,1.64,0,0,0,0,3.27H24.69L2,62.9a1.63,1.63,0,0,0,0,2.31,1.65,1.65,0,0,0,2.31,0L26.83,42.73v22.7a1.64,1.64,0,1,0,3.27,0V38.61A1.65,1.65,0,0,0,28.46,37Z"/></g></g></svg>