<svg xmlns="http://www.w3.org/2000/svg" viewBox="0 0 71.32 71.32"><defs><style>.cls-1{fill:none;}.cls-2{fill:#333;}</style></defs><title>资源 11</title><g id="图层_2" data-name="图层 2"><g id="图层_1-2" data-name="图层 1"><g id="_编组_" data-name="&lt;编组&gt;"><path id="_复合路径_" data-name="&lt;复合路径&gt;" class="cls-1" d="M35.66,3.1A32.56,32.56,0,1,0,68.22,35.66,32.56,32.56,0,0,0,35.66,3.1Zm4.18,55c-9,0-16.33-11.19-16.33-25s7.31-25,16.33-25,16.34,11.19,16.34,25S48.87,58.1,39.84,58.1Z"/><path id="_复合路径_2" data-name="&lt;复合路径&gt;" class="cls-2" d="M35.66,0A35.66,35.66,0,1,0,71.32,35.66,35.67,35.67,0,0,0,35.66,0Zm0,68.22A32.56,32.56,0,1,1,68.22,35.66,32.56,32.56,0,0,1,35.66,68.22Z"/><path id="_复合路径_3" data-name="&lt;复合路径&gt;" class="cls-1" d="M39.84,8.1c-9,0-16.33,11.19-16.33,25s7.31,25,16.33,25,16.34-11.19,16.34-25S48.87,8.1,39.84,8.1Zm12.8,36.67-.77,1.35a.78.78,0,0,1-1.06.3L34.56,37.2a.78.78,0,0,1-.32-.33.8.8,0,0,1-.13-.43V13.18a.78.78,0,0,1,.78-.78h1.55a.77.77,0,0,1,.77.78v22l15.13,8.58A.76.76,0,0,1,52.64,44.77Z"/><path id="_路径_" data-name="&lt;路径&gt;" class="cls-2" d="M37.21,13.18a.77.77,0,0,0-.77-.78H34.89a.78.78,0,0,0-.78.78V36.44a.8.8,0,0,0,.13.43.78.78,0,0,0,.32.33l16.25,9.22a.78.78,0,0,0,1.06-.3l.77-1.35a.76.76,0,0,0-.3-1.05L37.21,35.14Z"/></g></g></g></svg>