<svg xmlns="http://www.w3.org/2000/svg" viewBox="0 0 71.32 71.32"><defs><style>.cls-1{fill:#333;}.cls-2{fill:none;}</style></defs><title>资源 15</title><g id="图层_2" data-name="图层 2"><g id="图层_1-2" data-name="图层 1"><path id="_复合路径_" data-name="&lt;复合路径&gt;" class="cls-1" d="M35.66,0A35.66,35.66,0,1,0,71.32,35.66,35.67,35.67,0,0,0,35.66,0Zm0,68.22A32.56,32.56,0,1,1,68.22,35.66,32.56,32.56,0,0,1,35.66,68.22Z"/><path id="_路径_" data-name="&lt;路径&gt;" class="cls-1" d="M64.14,47.2a1.63,1.63,0,0,0-.11.23c-.05.11-.09.23-.13.34Z"/><path id="_路径_2" data-name="&lt;路径&gt;" class="cls-1" d="M66.19,39.36l-.06.34c0,.1,0,.2,0,.3Z"/><path id="_路径_3" data-name="&lt;路径&gt;" class="cls-1" d="M60.06,54.31l-.19.25Z"/><path id="_路径_4" data-name="&lt;路径&gt;" class="cls-1" d="M63.9,23.14l.12.32.12.25Z"/><path id="_路径_5" data-name="&lt;路径&gt;" class="cls-1" d="M66.1,30.9c0,.1,0,.2,0,.3l.06.34Z"/><path id="_路径_6" data-name="&lt;路径&gt;" class="cls-1" d="M59.93,16.43l.06.09.06.06C60.31,16.92,59.67,16.09,59.93,16.43Z"/><path id="_路径_7" data-name="&lt;路径&gt;" class="cls-1" d="M54.19,10.75l.25.18C54.06,10.64,54.08,10.66,54.19,10.75Z"/><g id="_编组_" data-name="&lt;编组&gt;"><path id="_复合路径_2" data-name="&lt;复合路径&gt;" class="cls-2" d="M23.93,55.56c-7.57-4.42-8.46-17-2-28.11S39.82,10.92,47.39,15.34s8.46,17,2,28.11S31.51,60,23.93,55.56Z"/><path id="_复合路径_3" data-name="&lt;复合路径&gt;" class="cls-2" d="M47.39,15.34c-7.57-4.42-19,1-25.44,12.11s-5.59,23.69,2,28.11,19-1,25.44-12.11S55,19.76,47.39,15.34ZM31.09,51.1l-6.17,3.4a2,2,0,0,1-.41.15l.2-.07c-.52.19-.71.15-.78-.25a2.26,2.26,0,0,1,0-.35l.18-7a.74.74,0,0,1,.4-.62.71.71,0,0,1,.72,0l5.95,3.51a.67.67,0,0,1,.34.62A.77.77,0,0,1,31.09,51.1ZM45.34,44l-4.05,7a2.26,2.26,0,0,1-1.46,1.1l-.3,0a2,2,0,0,1-1.83-.84L35.41,47.1c-2.21,1.18-3.76.7-6.29-.57a4.65,4.65,0,0,1-.42-.24C27.11,45.34,26,44,25.07,41l-4.63.06a1.94,1.94,0,0,1-1.77-3l4-6.92a2.84,2.84,0,0,1,1.64-1l5.1-2c.36-.66.21-.42.54-1,4-6.45,8.36-9.79,15.23-11.84a2.11,2.11,0,0,1,2.59,1.52c1.95,6.07.91,12.17-2.33,17.94-.39.71-.79,1.42-1.19,2.12l1.23,5.55A2.15,2.15,0,0,1,45.34,44Z"/><path id="_路径_8" data-name="&lt;路径&gt;" class="cls-2" d="M38.41,26.31a3,3,0,0,0-2.4,3.4,2.73,2.73,0,0,0,3.34,2.17,3,3,0,0,0,2.4-3.4A2.73,2.73,0,0,0,38.41,26.31Z"/><path id="_复合路径_4" data-name="&lt;复合路径&gt;" class="cls-1" d="M45.44,34.79c3.24-5.77,4.28-11.87,2.33-17.94a2.11,2.11,0,0,0-2.59-1.52C38.31,17.38,34,20.72,30,27.17c-.33.6-.18.36-.54,1l-5.1,2a2.84,2.84,0,0,0-1.64,1l-4,6.92a1.94,1.94,0,0,0,1.77,3L25.07,41c.95,3,2,4.31,3.63,5.26a4.65,4.65,0,0,0,.42.24c2.53,1.27,4.08,1.75,6.29.57l2.29,4.18a2,2,0,0,0,1.83.84l.3,0A2.26,2.26,0,0,0,41.29,51l4.05-7a2.15,2.15,0,0,0,.14-1.5l-1.23-5.55C44.65,36.21,45.05,35.5,45.44,34.79Zm-6.09-2.91A2.73,2.73,0,0,1,36,29.71a3,3,0,0,1,2.4-3.4,2.73,2.73,0,0,1,3.34,2.17A3,3,0,0,1,39.35,31.88Z"/><path id="_路径_9" data-name="&lt;路径&gt;" class="cls-1" d="M31.15,49.86,25.2,46.35a.71.71,0,0,0-.72,0,.74.74,0,0,0-.4.62l-.18,7a2.26,2.26,0,0,0,0,.35c.07.4.26.44.78.25l-.2.07a2,2,0,0,0,.41-.15l6.17-3.4a.77.77,0,0,0,.4-.62A.67.67,0,0,0,31.15,49.86Z"/></g></g></g></svg>