<svg xmlns="http://www.w3.org/2000/svg" viewBox="0 0 53.5 59.8"><defs><style>.cls-1{fill:none;}.cls-2{fill:#333;}</style></defs><title>资源 16</title><g id="图层_2" data-name="图层 2"><g id="图层_1-2" data-name="图层 1"><g id="_编组_" data-name="&lt;编组&gt;"><path id="_路径_" data-name="&lt;路径&gt;" class="cls-1" d="M20.45,18.88H3.15v22h17.3a1.62,1.62,0,0,1,1.12.46l13,13.05V5.37l-13,13.05A1.57,1.57,0,0,1,20.45,18.88Z"/><path id="_复合路径_" data-name="&lt;复合路径&gt;" class="cls-2" d="M35.07.46,19.8,15.74H1.57A1.57,1.57,0,0,0,0,17.31V42.49a1.57,1.57,0,0,0,1.57,1.57H19.8L35.07,59.33a1.57,1.57,0,0,0,2.69-1.11V1.58A1.57,1.57,0,0,0,37.3.46,1.59,1.59,0,0,0,35.07.46Zm-.45,54-13-13.05a1.62,1.62,0,0,0-1.12-.46H3.15v-22h17.3a1.57,1.57,0,0,0,1.12-.46l13-13Z"/><path id="_路径_2" data-name="&lt;路径&gt;" class="cls-2" d="M50.27,22.11l0,0a1.57,1.57,0,1,0-2.18,2.26,7.88,7.88,0,0,1,0,11.13l0,0a1.57,1.57,0,0,0,2.26,2.19,11,11,0,0,0,0-15.58Z"/></g></g></g></svg>