<svg xmlns="http://www.w3.org/2000/svg" viewBox="0 0 51.47 51.47"><defs><style>.cls-1{fill:#333;}</style></defs><title>资源 32</title><g id="图层_2" data-name="图层 2"><g id="图层_1-2" data-name="图层 1"><path id="_复合路径_" data-name="&lt;复合路径&gt;" class="cls-1" d="M0,18.25H8.53V47.89l7.83-7.82.95.71L8.77,49.31A5.19,5.19,0,0,0,7.35,51L6.4,50.5c.79-1.11,1.11-1.74.95-1.9V19.44H0ZM3.32.71,4.27,0,13,10l-.95.71Zm13.75,12.8H44.33V14.7H17.07ZM19.2,2.37H51.44v42.2q.48,7.35-7.58,6.88c-.79,0-2.22-.09-4.27-.24H36.75L37,50h2.61c1.9.16,3.32.24,4.27.24q6.87.47,6.4-5.69v-41H19.2Zm1.43,21.57H40.54V41.25H20.63Zm18.72,1.19H21.81V40.07H39.35Z"/></g></g></svg>