<?xml version="1.0" standalone="no"?><!DOCTYPE svg PUBLIC "-//W3C//DTD SVG 1.1//EN" "http://www.w3.org/Graphics/SVG/1.1/DTD/svg11.dtd"><svg class="icon" width="200px" height="200.00px" viewBox="0 0 1024 1024" version="1.1" xmlns="http://www.w3.org/2000/svg"><path fill="#333333" d="M822.773 581.889 532.501 861.445c-5.591 5.591-13.046 8.387-20.501 8.387s-14.909-2.796-20.501-8.387L200.761 580.957c-3.728-3.262-106.231-96.912-106.231-208.735 0-136.517 83.401-218.054 222.714-218.054 81.537 0 157.949 64.298 194.757 100.641 36.809-36.343 113.221-100.641 194.758-100.641 139.312 0 222.713 81.537 222.713 218.054C929.471 484.045 826.967 577.695 822.773 581.889zM706.758 213.807c-69.424 0-147.699 75.015-171.927 103.902-11.183 13.512-34.479 13.512-45.661 0-24.229-28.888-102.504-103.902-171.927-103.902-74.549 0-163.075 27.49-163.075 158.415 0 85.265 86.196 164.473 87.129 165.404L512 798.545l270.237-260.453c1.398-1.397 87.595-80.605 87.595-165.87C869.832 241.297 781.306 213.807 706.758 213.807z" /></svg>