<?xml version="1.0" standalone="no"?><!DOCTYPE svg PUBLIC "-//W3C//DTD SVG 1.1//EN" "http://www.w3.org/Graphics/SVG/1.1/DTD/svg11.dtd"><svg class="icon" width="200px" height="200.00px" viewBox="0 0 1024 1024" version="1.1" xmlns="http://www.w3.org/2000/svg"><path fill="#333333" d="M486.4 972.8c-4.3008 0-8.5504-1.0752-12.4416-3.2256-5.9392-3.328-147.3024-82.4832-274.8928-208.9984-10.0352-9.9328-10.0864-26.1632-0.1536-36.1984s26.1632-10.0864 36.1984-0.1536c101.3248 100.4544 214.3232 171.3152 251.2896 193.3312 37.0176-22.0672 150.1184-93.0304 251.2896-193.3312 10.0352-9.9328 26.2656-9.8816 36.1984 0.1536s9.8816 26.2656-0.1536 36.1984c-127.6416 126.5152-268.9536 205.6704-274.8928 208.9984-3.8912 2.1504-8.1408 3.2256-12.4416 3.2256zM65.4848 563.2c-9.6256 0-18.8416-5.4272-23.1936-14.6944-28.0576-59.648-42.2912-119.296-42.2912-177.3056 0-148.224 120.576-268.8 268.8-268.8 50.176 0 103.4752 18.7904 150.0672 52.9408 27.2384 19.968 50.432 44.032 67.5328 69.5808 17.1008-25.5488 40.2944-49.6128 67.5328-69.5808 46.592-34.1504 99.8912-52.9408 150.0672-52.9408 148.224 0 268.8 120.576 268.8 268.8 0 58.0096-14.2336 117.6576-42.2912 177.3056-6.0416 12.8-21.248 18.2784-34.048 12.288s-18.2784-21.248-12.288-34.048c24.832-52.7872 37.4272-105.1136 37.4272-155.4944 0-119.9616-97.6384-217.6-217.6-217.6-87.1936 0-171.8784 71.7312-193.3312 136.0896-3.4816 10.4448-13.2608 17.5104-24.2688 17.5104s-20.7872-7.0656-24.2688-17.5104c-21.4528-64.3584-106.1376-136.0896-193.3312-136.0896-119.9616 0-217.6 97.6384-217.6 217.6 0 50.3808 12.5952 102.7072 37.4272 155.4944 6.0416 12.8 0.512 28.0576-12.288 34.048-3.5328 1.6384-7.2192 2.4576-10.8544 2.4576zM538.368 768c-0.256 0-0.4608 0-0.6656 0-10.3424-0.2048-29.1328-5.5808-38.5536-39.2192l-62.3104-221.9008-41.3184 167.8848c-8.0896 32.9216-26.88 39.8336-37.376 40.96s-30.3104-1.3824-45.5168-31.744l-31.0272-62.0032c-1.4848-2.9696-2.8672-4.8128-3.8912-5.9904-0.1536 0.2048-0.3584 0.4608-0.5632 0.768-18.944 27.8016-61.0304 48.7936-97.9456 48.7936l-51.2 0c-14.1312 0-25.6-11.4688-25.6-25.6s11.4688-25.6 25.6-25.6l51.2 0c21.5552 0 47.1552-13.9264 55.6544-26.4192 11.4176-16.7424 28.0064-25.6512 45.6192-24.4736 19.1488 1.28 36.2496 14.2848 46.9504 35.6352l22.784 45.568 47.9232-194.7136c8.0896-32.768 24.6784-39.8848 37.1712-40.0896s29.2864 6.4 38.4512 38.912l65.7408 234.2912 60.3136-184.7296c10.496-32.1536 29.7984-37.6832 40.3456-38.144s30.208 3.4816 43.3664 34.6624l37.0688 88.0128c6.9632 16.4864 29.5936 31.5392 47.4624 31.5392l76.8 0c14.1312 0 25.6 11.4688 25.6 25.6s-11.4688 25.6-25.6 25.6l-76.8 0c-38.2464 0-79.8208-27.5968-94.6688-62.8736l-30.3104-71.9872-65.2288 199.68c-10.5984 32.4608-28.9792 37.5296-39.4752 37.5296z" /></svg>