<?xml version="1.0" standalone="no"?><!DOCTYPE svg PUBLIC "-//W3C//DTD SVG 1.1//EN" "http://www.w3.org/Graphics/SVG/1.1/DTD/svg11.dtd"><svg class="icon" width="200px" height="200.00px" viewBox="0 0 1024 1024" version="1.1" xmlns="http://www.w3.org/2000/svg"><path fill="#333333" d="M512 1000.727273C781.916621 1000.727273 1000.727273 781.916621 1000.727273 512 1000.727273 242.083381 781.916621 23.272727 512 23.272727 242.083381 23.272727 23.272727 242.083381 23.272727 512 23.272727 781.916621 242.083381 1000.727273 512 1000.727273L512 1000.727273ZM512 954.181818C267.789725 954.181818 69.818182 756.210274 69.818182 512 69.818182 267.789725 267.789725 69.818182 512 69.818182 756.210274 69.818182 954.181818 267.789725 954.181818 512 954.181818 756.210274 756.210274 954.181818 512 954.181818L512 954.181818ZM279.272727 558.545455C304.979072 558.545455 325.818182 537.706342 325.818182 512 325.818182 486.293658 304.979072 465.454545 279.272727 465.454545 253.566383 465.454545 232.727273 486.293658 232.727273 512 232.727273 537.706342 253.566383 558.545455 279.272727 558.545455ZM512 558.545455C537.706342 558.545455 558.545455 537.706342 558.545455 512 558.545455 486.293658 537.706342 465.454545 512 465.454545 486.293658 465.454545 465.454545 486.293658 465.454545 512 465.454545 537.706342 486.293658 558.545455 512 558.545455ZM744.727273 558.545455C770.433615 558.545455 791.272727 537.706342 791.272727 512 791.272727 486.293658 770.433615 465.454545 744.727273 465.454545 719.02093 465.454545 698.181818 486.293658 698.181818 512 698.181818 537.706342 719.02093 558.545455 744.727273 558.545455Z" /></svg>