<?xml version="1.0" standalone="no"?><!DOCTYPE svg PUBLIC "-//W3C//DTD SVG 1.1//EN" "http://www.w3.org/Graphics/SVG/1.1/DTD/svg11.dtd"><svg class="icon" width="200px" height="200.00px" viewBox="0 0 1024 1024" version="1.1" xmlns="http://www.w3.org/2000/svg"><path fill="#333333" d="M53.223932 388.327479C121.41552 133.819995 383.876066-17.752677 638.417675 50.473036 764.997445 84.365027 875.024606 179.293693 938.425398 307.4982l-96.896551-25.96547-8.840317 33.004736 131.878652 35.325248c1.433258 0.375377 2.934765 0.580128 4.402148 0.580128 2.968891 0 5.903656-0.784879 8.567316-2.322408 3.926291-2.286387 6.792807-5.973802 7.953063-10.37595l35.325248-131.878652-32.970611-8.806192-23.195643 86.564205C896.259947 151.115774 780.370838 53.115842 647.257992 17.470196 374.694497-55.500813 93.29258 106.823187 20.253321 379.487162c-11.638582 43.447041-17.576363 87.987983-17.576363 132.492905l34.128971 0C36.84195 470.478161 42.336104 428.839754 53.223932 388.327479zM987.192175 511.980066c0 41.501906-5.528279 83.106187-16.381982 123.652588-68.193483 254.50938-330.65403 406.080156-585.195639 337.854443-126.577874-33.891991-236.606931-128.820656-300.007723-257.023268l96.902239 25.96547 8.840317-33.004736-131.878652-35.325248c-4.368023-1.092006-9.010943-0.580128-12.935339 1.740384-3.926291 2.286387-6.792807 5.973802-7.953063 10.37595L3.257086 818.094301l32.968715 8.804296 23.167205-86.547142c68.388755 132.500488 184.274073 230.494733 317.383127 266.140378 44.197795 11.843333 88.602237 17.508113 132.356404 17.508113 226.045188 0 433.454237-151.093023 494.614142-379.526974 11.638582-43.447041 17.576363-87.987983 17.576363-132.492905L987.192175 511.980066 987.192175 511.980066z" /></svg>