<?xml version="1.0" standalone="no"?><!DOCTYPE svg PUBLIC "-//W3C//DTD SVG 1.1//EN" "http://www.w3.org/Graphics/SVG/1.1/DTD/svg11.dtd"><svg class="icon" width="200px" height="200.00px" viewBox="0 0 1024 1024" version="1.1" xmlns="http://www.w3.org/2000/svg"><path fill="#333333" d="M725.333333 714.666667 725.333333 714.666667c-2.133333 2.133333-4.266667 4.266667-6.4 4.266667l-192 192C524.8 915.2 518.4 917.333333 512 917.333333c-6.4 0-10.666667-2.133333-14.933333-6.4l-192-192c-2.133333-2.133333-2.133333-4.266667-4.266667-6.4L298.666667 714.666667c-78.933333-61.866667-128-157.866667-128-266.666667 0-187.733333 153.6-341.333333 341.333333-341.333333s341.333333 153.6 341.333333 341.333333C853.333333 556.8 802.133333 652.8 725.333333 714.666667zM512 149.333333c-164.266667 0-298.666667 134.4-298.666667 298.666667 0 98.133333 49.066667 185.6 121.6 238.933333 0 0 0 0 2.133333 0l0 0c2.133333 2.133333 2.133333 2.133333 4.266667 4.266667l0 0 170.666667 170.666667 174.933333-174.933333 0 0C761.6 635.733333 810.666667 548.266667 810.666667 448 810.666667 283.733333 676.266667 149.333333 512 149.333333zM512 576c-70.4 0-128-57.6-128-128s57.6-128 128-128 128 57.6 128 128S582.4 576 512 576zM512 362.666667c-46.933333 0-85.333333 38.4-85.333333 85.333333s38.4 85.333333 85.333333 85.333333 85.333333-38.4 85.333333-85.333333S558.933333 362.666667 512 362.666667z" /></svg>