<?xml version="1.0" standalone="no"?><!DOCTYPE svg PUBLIC "-//W3C//DTD SVG 1.1//EN" "http://www.w3.org/Graphics/SVG/1.1/DTD/svg11.dtd"><svg class="icon" width="200px" height="200.00px" viewBox="0 0 1024 1024" version="1.1" xmlns="http://www.w3.org/2000/svg"><path fill="#333333" d="M512 896C299.922286 896 128 724.077714 128 512S299.922286 128 512 128 896 299.922286 896 512 724.077714 896 512 896z m0-36.571429a347.428571 347.428571 0 1 0 0-694.857142 347.428571 347.428571 0 0 0 0 694.857142z m155.428571-331.593142l-219.428571 126.683428a18.285714 18.285714 0 0 1-27.428571-15.835428v-253.366858a18.285714 18.285714 0 0 1 27.428571-15.835428l219.428571 126.683428a18.285714 18.285714 0 0 1 0 31.670858z" /></svg>