<?xml version="1.0" standalone="no"?><!DOCTYPE svg PUBLIC "-//W3C//DTD SVG 1.1//EN" "http://www.w3.org/Graphics/SVG/1.1/DTD/svg11.dtd"><svg class="icon" width="200px" height="200.00px" viewBox="0 0 1024 1024" version="1.1" xmlns="http://www.w3.org/2000/svg"><path fill="#333333" d="M901 513.5c0 19.1-1.3 38.1-3.8 57 0.4-2.7 0.7-5.3 1.1-8-5 36.2-14.6 71.5-28.7 105.2l3-7.2c-8.6 20.3-18.7 39.9-30.3 58.7-5.8 9.3-11.9 18.4-18.4 27.2-1.6 2.1-3.1 4.2-4.7 6.3 6.7-8.8 0.6-0.9-1 1.2-3.5 4.4-7.2 8.8-10.9 13.1-14.3 16.5-30 31.8-46.6 45.9-4 3.4-8.1 6.7-12.2 9.9-4.2 3.3 6.2-4.7 1.9-1.5-1 0.8-2.1 1.6-3.1 2.4-2.5 1.8-4.9 3.6-7.4 5.4-8.9 6.4-18.1 12.4-27.5 18-17 10.2-34.8 19.2-53.1 26.9l7.2-3c-33.7 14.1-69 23.7-105.2 28.7 2.7-0.4 5.3-0.7 8-1.1-37.8 5.1-76.1 5.1-113.9 0 2.7 0.4 5.3 0.7 8 1.1-36.2-5-71.5-14.6-105.2-28.7l7.2 3c-20.3-8.6-39.9-18.7-58.7-30.3-9.3-5.8-18.4-11.9-27.2-18.4-2.1-1.6-4.2-3.1-6.3-4.7 8.8 6.7 0.9 0.6-1.2-1-4.4-3.5-8.8-7.2-13.1-10.9-16.5-14.3-31.8-30-45.9-46.6-3.4-4-6.7-8.1-9.9-12.2-3.3-4.2 4.7 6.2 1.5 1.9-0.8-1-1.6-2.1-2.4-3.1-1.8-2.5-3.6-4.9-5.4-7.4-6.4-8.9-12.4-18.1-18-27.5-10.2-17-19.2-34.8-26.9-53.1l3 7.2c-14.1-33.7-23.7-69-28.7-105.2 0.4 2.7 0.7 5.3 1.1 8-5.1-37.8-5.1-76.1 0-113.9-0.4 2.7-0.7 5.3-1.1 8 5-36.2 14.6-71.5 28.7-105.2l-3 7.2c8.6-20.3 18.7-39.9 30.3-58.7 5.8-9.3 11.9-18.4 18.4-27.2 1.6-2.1 3.1-4.2 4.7-6.3-6.7 8.8-0.6 0.9 1-1.2 3.5-4.4 7.2-8.8 10.9-13.1 14.3-16.5 30-31.8 46.6-45.9 4-3.4 8.1-6.7 12.2-9.9 4.2-3.3-6.2 4.7-1.9 1.5 1-0.8 2.1-1.6 3.1-2.4 2.5-1.8 4.9-3.6 7.4-5.4 8.9-6.4 18.1-12.4 27.5-18 17-10.2 34.8-19.2 53.1-26.9l-7.2 3c33.7-14.1 69-23.7 105.2-28.7-2.7 0.4-5.3 0.7-8 1.1 37.8-5.1 76.1-5.1 113.9 0-2.7-0.4-5.3-0.7-8-1.1 36.2 5 71.5 14.6 105.2 28.7l-7.2-3c20.3 8.6 39.9 18.7 58.7 30.3 9.3 5.8 18.4 11.9 27.2 18.4 2.1 1.6 4.2 3.1 6.3 4.7-8.8-6.7-0.9-0.6 1.2 1 4.4 3.5 8.8 7.2 13.1 10.9 16.5 14.3 31.8 30 45.9 46.6 3.4 4 6.7 8.1 9.9 12.2 3.3 4.2-4.7-6.2-1.5-1.9 0.8 1 1.6 2.1 2.4 3.1 1.8 2.5 3.6 4.9 5.4 7.4 6.4 8.9 12.4 18.1 18 27.5 10.2 17 19.2 34.8 26.9 53.1l-3-7.2c14.1 33.7 23.7 69 28.7 105.2-0.4-2.7-0.7-5.3-1.1-8 2.5 18.8 3.8 37.8 3.8 56.9 0 16.4 13.6 30 30 30 16.3 0 30-13.6 30-30-0.2-94.3-30.1-188.3-86.2-264.3C818.4 172.7 740.1 115.5 649.6 86c-90.9-29.7-192.5-28.6-282.8 2.6-89.9 31-167 89.8-222.2 167C89.7 332.5 61.4 427.7 63.1 522c1.7 94 33.5 187.4 90.8 262.1 29.4 38.4 63.7 71.4 103.4 99.1 37.9 26.5 80.6 46.7 124.8 60.2 91.4 27.9 193 25.2 282.7-7.7C754 903 830.3 843.2 884 764.9c50.4-73.4 76.9-162.6 77-251.4 0-16.4-13.7-30-30-30-16.4 0-30 13.6-30 30z"  /><path fill="#333333" d="M529.8 236.1c-9.9-8.9-24.2-12-37.5-0.1-61.4 65.5-87.2 128.9-90 224 0.2 8.6 0.3 5 0.6 14.4L360.3 528c-7 7.9-11.2 15.2-11.1 21.7l0.3 100c0.1 9.2 5 17.5 12.8 21.8 7.7 4.2 17.3 3.8 25-1.1l49.6-29.8c29.1 26.2 49.3 33.7 72.4 34 2 0 2.6 0.1 6.1-0.1 35.4-2.2 55.2-6.8 71.6-33.4l51.1 30.7c7.9 3.7 17.5 2.8 25-2.5 1-0.7 2-1.5 3-2.4 5.8-5.5 9.1-13.1 8.9-21.1l-0.4-101.3c-0.1-6.4-3.7-12.5-8-17.1l-48.3-52.3c-0.1-10.1-0.2-20.2-0.5-30.4-1.4-82.8-28.6-155.3-88-208.6z m3.8 215.6c-15 13.7-37.3 12.6-49.8-2.4s-10.4-38.3 4.6-51.9c15-13.7 37.3-12.6 49.8 2.4s10.4 38.2-4.6 51.9z m24.8 246l-86.5-0.4c-3.2 0-6.2 1.8-7.8 4.6-1.7 2.9-1.9 6.3-0.4 9.2L506 788c0.9 1.3 1.2 2.1 2.5 3.6 3.3 3.9 5.6 3.1 10-2.2l-1.7 2c0.6-0.6 3.1-3.4 3.5-4.2l45.2-75.7c1.7-2.8 1.9-6.4 0.4-9.2-1.5-2.9-4.4-4.7-7.5-4.6z"  /></svg>