<?xml version="1.0" standalone="no"?><!DOCTYPE svg PUBLIC "-//W3C//DTD SVG 1.1//EN" "http://www.w3.org/Graphics/SVG/1.1/DTD/svg11.dtd"><svg class="icon" width="200px" height="200.00px" viewBox="0 0 1024 1024" version="1.1" xmlns="http://www.w3.org/2000/svg"><path fill="#333333" d="M512.071 4.068c-280.108 0-507.932 227.897-507.932 507.932 0 280.108 227.897 507.858 507.932 507.858 280.036 0 507.786-227.823 507.786-507.858 0.146-280.036-227.751-507.932-507.786-507.932zM512.071 971.283c-253.276 0-459.357-206.081-459.357-459.357 0-253.203 206.081-459.283 459.357-459.283 253.421 0 459.211 206.081 459.211 459.283 0 253.276-205.935 459.357-459.211 459.357zM301.701 641.51l-92.497-275.6-48.575-0.071 118.093 323.229h46.466l117.875-323.229-48.866 0.071zM493.021 365.838h43.63v323.156h-43.63v-323.156zM831.375 391.216c-17.38-16.87-40.721-25.379-70.099-25.379h-145.362v323.156h43.849v-136.273h101.514c32.504 0 57.228-10.399 74.317-31.050 14.399-17.453 21.524-39.050 21.524-64.937 0-26.687-8.508-48.575-25.741-65.519zM794.217 502.692c-10.835 8.363-26.761 12.58-47.703 12.58h-86.752v-111.985h88.643c19.488 0 34.758 3.854 45.449 11.634 12.289 9.017 18.471 23.125 18.471 42.321-0.071 21.016-6.036 36.141-18.106 45.449z" /></svg>